<svg width="104" height="26" viewBox="0 0 104 26" fill="none" xmlns="http://www.w3.org/2000/svg">
<g clip-path="url(#clip0_2051_3897)">
<path d="M13.0477 0C5.87527 0 0 5.77778 0 13C0 20.1462 5.79897 26 13.0477 26C20.2201 26 26.0954 20.2222 26.0954 13C26.0954 5.77778 20.2201 0 13.0477 0ZM13.0477 24.9357C6.40939 24.9357 1.06823 19.614 1.06823 13C1.06823 6.38596 6.40939 1.06433 13.0477 1.06433C19.686 1.06433 25.0271 6.38596 25.0271 13C25.1034 19.538 19.686 24.9357 13.0477 24.9357Z" fill="#77787B"/>
<path d="M13.0477 22.6549C13.5055 22.6549 13.7344 22.3508 13.8107 21.9707C13.887 22.1228 14.0396 22.2748 14.1922 22.3508C14.3448 22.3508 14.5737 22.3508 14.7263 22.2748C14.8789 22.1988 15.0315 22.0467 15.1078 21.8947C15.1841 21.7426 15.1841 21.5146 15.1078 21.3625C15.3367 21.6666 15.642 21.7426 16.0235 21.5906C16.4813 21.3625 16.6339 21.0584 16.405 20.6023C15.8709 19.3099 15.3367 18.0935 14.8026 16.8011C14.7263 16.6491 14.7263 16.573 14.65 16.421C14.5737 16.345 14.5737 16.269 14.4974 16.1929C14.4974 16.1169 14.4211 16.1169 14.3448 16.0409C15.1841 16.1169 15.5657 16.421 15.7946 16.5731C15.8709 16.6491 15.8709 16.6491 16.0998 16.5731C16.1761 16.5731 16.3287 16.5731 16.405 16.5731C16.4813 16.6491 16.6339 16.7251 16.7102 16.7251C17.0154 16.9532 17.3206 17.1812 17.6258 17.4093C17.7784 17.5614 17.931 17.7134 17.931 17.9415C17.931 18.0935 17.4732 18.4736 17.3969 18.6257C17.0917 18.9298 17.5495 19.3859 18.1599 19.3859C18.0073 19.2339 17.931 19.0818 18.0073 18.9298C18.0836 18.9298 18.1599 18.9298 18.3125 18.8538C18.4651 18.7777 18.3888 18.3976 18.4651 18.3216C18.694 18.0935 19.3045 18.0935 19.7623 18.0935C19.9149 18.0935 20.1438 18.0175 20.0675 17.7894C20.2964 17.7894 20.3727 18.0175 20.3727 18.1695C20.6016 18.0175 20.7542 17.4853 19.9912 17.3333C20.1438 17.1812 20.3727 17.1812 20.5253 17.3333C20.6779 17.1052 20.2964 16.7251 19.686 16.9532C19.686 16.9532 19.3808 16.573 18.6177 17.4853C18.5414 17.4093 18.3888 17.3333 18.3125 17.2573C18.0073 16.9532 17.2443 16.1929 17.2443 16.1929C17.2443 15.7368 17.168 14.9005 16.6339 14.4444C16.405 14.2163 16.1761 14.1403 15.642 13.9883C15.642 13.9883 15.8709 13.6081 15.9472 13.4561C16.405 13.9122 17.3206 14.0643 17.3206 13.304C18.0836 14.0643 18.7704 13.6081 18.7704 13.152C18.7704 13.3801 18.8467 13.6081 18.923 13.8362C18.9993 14.0643 19.3808 15.0526 20.2201 15.0526C20.2201 15.3567 20.2201 16.497 21.2883 16.7251C21.3646 16.7251 21.3646 16.7251 21.4409 16.8011C21.8987 17.3333 23.6537 17.8654 23.8063 17.7134C23.6537 17.6374 23.4248 17.4853 23.4248 16.8771C23.4248 16.497 23.3485 14.3684 23.3485 11.4035C23.3485 10.3391 23.2722 6.91808 19.8386 6.46194C19.3045 6.38592 18.8467 6.46194 18.3888 6.76603C17.7784 7.22217 17.4732 7.98241 17.8547 8.81866V8.89469C18.0073 9.12276 17.931 9.27481 17.7784 9.42685C17.4732 9.73095 17.168 9.88299 16.7865 9.95901C16.5576 9.95901 16.3287 9.88299 16.1761 9.73095C15.7946 9.35083 15.5657 8.89469 15.4131 8.36252C15.2604 7.37422 15.4894 6.84206 15.4894 6.76603C15.7946 6.23387 16.3287 5.77773 17.0154 5.77773C17.3206 5.16954 18.2362 5.39761 18.2362 5.39761C18.4651 5.47363 18.5414 5.47364 18.6177 5.62568C18.6177 5.62568 18.9993 5.0175 18.6177 4.78943C18.2362 4.56136 17.3969 4.48533 17.3969 4.48533C17.3969 4.10521 16.7865 3.80112 15.5657 4.02919C14.1922 4.25726 13.887 3.7251 13.887 3.7251C13.8107 4.40931 14.3448 4.7134 14.4974 4.86545C13.9633 5.47364 13.2003 6.61399 13.0477 8.21048C12.8951 6.61399 12.1321 5.47364 11.5979 4.86545C11.7505 4.78943 12.2847 4.40931 12.2084 3.7251C12.2084 3.7251 11.9031 4.25726 10.5297 4.02919C9.38517 3.80112 8.69845 4.10521 8.69845 4.48533C8.69845 4.48533 7.85912 4.56136 7.47761 4.78943C7.0961 5.0175 7.47761 5.62568 7.47761 5.62568C7.55392 5.54966 7.63022 5.47363 7.85912 5.39761C7.85912 5.39761 8.77475 5.16954 9.07996 5.77773C9.76668 5.85375 10.3008 6.23387 10.606 6.76603C10.606 6.76603 10.9112 7.2982 10.6823 8.36252C10.606 8.89469 10.3008 9.35083 9.91929 9.73095C9.76669 9.88299 9.53778 10.035 9.30887 9.95901C8.92736 9.88299 8.62215 9.73095 8.31694 9.42685C8.16433 9.27481 8.08803 9.12276 8.24064 8.89469V8.81866C8.62215 7.98241 8.31694 7.22217 7.70652 6.76603C7.24871 6.46194 6.79089 6.38592 6.25678 6.46194C2.89948 6.91808 2.74687 10.3391 2.74687 11.4035C2.74687 14.3684 2.67057 16.497 2.67057 16.8771C2.67057 17.4853 2.44167 17.6374 2.28906 17.7134C2.51797 17.8654 4.27292 17.3333 4.65443 16.8011C4.65443 16.8011 4.73073 16.7251 4.80703 16.7251C5.87527 16.497 5.87527 15.3567 5.87527 15.0526C6.71459 15.0526 7.0961 14.0643 7.1724 13.8362C7.24871 13.6081 7.32501 13.3801 7.32501 13.152C7.32501 13.6081 8.01173 13.9883 8.77476 13.304C8.77476 14.0643 9.69038 13.9122 10.1482 13.4561C10.2245 13.6081 10.4534 13.9883 10.4534 13.9883C9.91929 14.0643 9.69038 14.2163 9.46147 14.4444C8.85105 14.9766 8.85106 15.8128 8.85106 16.1929C8.85106 16.1929 8.08803 16.9532 7.78282 17.2573C7.70652 17.3333 7.55392 17.4093 7.47761 17.4853C6.63829 16.573 6.40938 16.9532 6.40938 16.9532C5.79896 16.7251 5.49375 17.1052 5.57006 17.3333C5.72266 17.1812 5.95157 17.2573 6.10418 17.3333C5.26485 17.4853 5.49376 18.0935 5.72266 18.1695C5.72266 18.0175 5.79896 17.7894 6.02787 17.7894C6.02787 18.0175 6.18047 18.0935 6.33308 18.0935C6.71459 18.0935 7.40131 18.0935 7.63022 18.3216C7.78283 18.3976 7.70652 18.7777 7.78282 18.8538C7.85913 18.9298 8.01173 18.9298 8.08803 18.9298C8.08803 19.0818 8.08803 19.1578 7.93543 19.3859C8.54584 19.4619 8.92736 18.9298 8.69845 18.6257C8.54584 18.4736 8.16434 18.0935 8.16434 17.9415C8.16434 17.7894 8.31694 17.5614 8.46955 17.4093C8.77475 17.1812 9.07996 16.9532 9.38517 16.7251C9.46147 16.6491 9.53778 16.5731 9.69038 16.5731C9.76668 16.497 9.91929 16.497 9.99559 16.5731C10.2245 16.6491 10.2245 16.6491 10.3008 16.5731C10.5297 16.421 10.9112 16.1169 11.7505 16.0409C11.6742 16.0409 11.6742 16.1169 11.5979 16.1929C11.5216 16.269 11.5216 16.345 11.4453 16.421C11.369 16.497 11.369 16.6491 11.2927 16.8011C10.7586 18.0935 10.2245 19.3099 9.69038 20.6023C9.53778 21.0584 9.69038 21.3625 10.0719 21.5906C10.3771 21.7426 10.7586 21.6666 10.9875 21.3625C10.9112 21.5906 10.9112 21.7426 10.9875 21.8947C11.0638 22.0467 11.2164 22.1988 11.369 22.2748C11.5216 22.3508 11.7505 22.3508 11.9031 22.3508C12.1321 22.2748 12.2084 22.1988 12.2847 21.9707C12.361 22.3508 12.5899 22.6549 13.0477 22.6549Z" fill="#77787B"/>
<path d="M35.0229 8.43867C35.7096 8.43867 37.2356 8.36264 38.075 8.28662C38.075 8.43867 38.075 8.66674 38.075 8.74276C38.075 8.81878 38.075 9.04685 38.075 9.1989C37.3119 9.12288 36.0911 9.04685 35.7096 9.04685C35.4044 9.04685 34.4124 9.04685 33.802 9.12288V12.3159H34.4887C35.8622 12.3159 38.6091 12.5439 38.6091 14.9007C38.6091 16.8012 37.0067 17.6375 34.9466 17.6375C34.7177 17.6375 33.8783 17.6375 33.2679 17.6375C33.039 17.6375 32.7338 17.6375 32.5049 17.6375C32.5812 16.1931 32.5812 14.2925 32.5812 12.696C32.5812 11.2515 32.5812 9.04685 32.5049 8.36264C33.3442 8.36264 34.7177 8.43867 35.0229 8.43867ZM33.802 16.8773C34.1072 16.8773 34.565 16.8773 34.8703 16.8773C36.3963 16.8773 37.2356 16.1931 37.2356 14.8246C37.2356 13.3802 36.1674 12.924 33.7257 12.924V16.8773H33.802Z" fill="#77787B"/>
<path d="M40.0588 11.8595C40.5929 11.2514 41.5085 10.9473 42.2715 10.9473C43.645 10.9473 44.5606 11.6315 44.5606 13.228V16.4209C44.5606 17.1052 44.7132 17.2572 44.9421 17.2572C45.0184 17.2572 45.171 17.2572 45.2473 17.1812L45.3236 17.4853C44.9421 17.7133 44.5606 17.7133 44.3317 17.7133C43.8739 17.7133 43.645 17.4853 43.5687 17.1812L43.4924 16.8771C42.8057 17.4093 42.0426 17.7133 41.4322 17.7133C40.2877 17.7133 39.5247 17.1052 39.5247 16.0408C39.5247 14.9005 40.364 14.3683 41.5848 14.1402L42.882 13.9122C43.3398 13.8362 43.5687 13.6841 43.5687 13.38C43.5687 12.0116 42.9583 11.6315 41.9663 11.6315C41.2033 11.6315 40.6692 11.8595 40.2114 12.6958H40.0588V11.8595ZM43.5687 14.2923L42.7294 14.4443C41.8137 14.5964 40.7455 14.9005 40.7455 15.8888C40.7455 16.649 41.127 17.0291 41.9663 17.0291C42.5004 17.0291 42.9583 16.8771 43.4924 16.2689V14.2923H43.5687Z" fill="#77787B"/>
<path d="M47.155 11.1753C47.3076 11.1753 47.5365 11.1753 47.7654 11.1753C47.6891 12.1636 47.6128 13.7601 47.6128 13.8361C48.1469 13.8361 48.9099 13.9121 49.3678 13.9121C49.8256 13.9121 50.5886 13.9121 50.9701 13.8361C50.9701 13.7601 50.9701 12.1636 50.8938 11.1753C51.1227 11.1753 51.4279 11.1753 51.5805 11.1753C51.7331 11.1753 51.962 11.1753 52.1909 11.1753C52.1146 12.1636 52.0383 13.7601 52.0383 14.4443C52.0383 14.9765 52.0383 16.725 52.1909 17.7133C51.962 17.7133 51.8094 17.7133 51.5805 17.7133C51.3516 17.7133 51.1227 17.7133 50.8938 17.7133C50.9701 16.725 50.9701 14.9765 50.9701 14.5963C50.436 14.5203 49.5967 14.5203 49.3678 14.5203C48.9862 14.5203 48.1469 14.5203 47.6128 14.5963C47.6128 15.0525 47.6128 16.725 47.7654 17.7133C47.5365 17.7133 47.3839 17.7133 47.155 17.7133C46.9261 17.7133 46.6972 17.7133 46.4683 17.7133C46.5446 16.725 46.6209 14.9765 46.6209 14.4443C46.6209 13.7601 46.6209 12.1636 46.4683 11.1753C46.6972 11.1753 47.0024 11.1753 47.155 11.1753Z" fill="#77787B"/>
<path d="M54.5564 11.1754C54.709 11.1754 54.9379 11.1754 55.1668 11.1754C55.0905 12.1637 55.0905 13.7602 55.0905 13.9883H55.3194C55.7772 13.9883 57.9137 11.5555 58.1426 11.1754C58.2952 11.1754 58.6004 11.1754 58.753 11.1754C58.9056 11.1754 59.2108 11.1754 59.3634 11.1754L56.3113 13.9122C56.6928 14.3684 58.753 16.6491 59.6686 17.6374C59.2871 17.6374 59.0582 17.6374 58.9056 17.6374C58.6767 17.6374 58.2952 17.6374 58.0663 17.6374C57.6084 16.8771 56.1587 15.2046 55.3194 14.2924H55.0905C55.0905 14.7485 55.0905 16.6491 55.1668 17.6374C55.0142 17.6374 54.7853 17.6374 54.5564 17.6374C54.3274 17.6374 54.0985 17.6374 53.8696 17.6374C53.9459 16.6491 54.0222 14.9005 54.0222 14.3684C54.0222 13.6842 54.0222 12.0877 53.8696 11.0994C54.0985 11.1754 54.3274 11.1754 54.5564 11.1754Z" fill="#77787B"/>
<path d="M65.2387 8.36264C65.6965 8.36264 66.2306 8.28662 66.6121 8.28662C68.9775 8.28662 69.8931 8.97083 69.8931 10.6433C69.8931 12.696 68.1382 13.3802 66.0017 13.3802C65.8491 13.3802 65.3913 13.3802 65.1624 13.3042V15.5088C65.1624 16.117 65.1624 16.9533 65.2387 17.5615C65.0098 17.5615 64.7809 17.5615 64.552 17.5615C64.323 17.5615 64.0178 17.5615 63.8652 17.5615C63.9415 16.117 63.9415 14.2164 63.9415 12.62C63.9415 11.1755 63.9415 8.97083 63.8652 8.28662C64.3994 8.28662 64.9335 8.36264 65.2387 8.36264ZM65.7728 12.696C67.604 12.696 68.596 12.0118 68.596 10.6433C68.596 9.35095 67.604 9.04685 66.3069 9.04685C66.078 9.04685 65.315 9.04685 65.1624 9.04685V12.62C65.3913 12.696 65.6202 12.696 65.7728 12.696Z" fill="#77787B"/>
<path d="M76.6075 14.3685C76.6075 16.3451 75.3104 17.7895 73.3265 17.7895C71.3427 17.7895 70.1218 16.3451 70.1218 14.5205C70.1218 12.3919 71.4953 11.0234 73.4791 11.0234C75.3867 11.0234 76.6075 12.3919 76.6075 14.3685ZM71.3427 14.4445C71.3427 15.8889 71.9531 17.2574 73.3265 17.2574C74.6237 17.2574 75.3867 15.965 75.3867 14.2924C75.3867 12.924 74.8526 11.4796 73.4028 11.4796C72.0294 11.4796 71.3427 12.924 71.3427 14.4445Z" fill="#77787B"/>
<path d="M82.8645 12.5438H82.7119C82.254 11.7836 81.6436 11.5555 80.9569 11.5555C79.4309 11.5555 78.7441 13 78.7441 14.4444C78.7441 16.0409 79.6598 17.3333 81.2621 17.3333C81.7962 17.3333 82.2541 17.2573 83.0171 16.421L83.1697 16.5731L83.0171 17.1812C82.4067 17.5614 81.7199 17.7894 80.8806 17.7894C78.8968 17.7894 77.5996 16.421 77.5996 14.4444C77.5996 12.3918 79.0494 11.0994 81.1095 11.0994C81.7962 11.0994 82.483 11.2514 83.3223 11.6315L82.8645 12.5438Z" fill="#77787B"/>
<path d="M89.4264 12.5438H89.2738C88.8159 11.7836 88.2055 11.5555 87.5188 11.5555C85.9928 11.5555 85.306 13 85.306 14.4444C85.306 16.0409 86.2217 17.3333 87.824 17.3333C88.3581 17.3333 88.8159 17.2573 89.579 16.421L89.6553 16.5731L89.5027 17.1812C88.8923 17.5614 88.2055 17.7894 87.3662 17.7894C85.3823 17.7894 84.0852 16.421 84.0852 14.4444C84.0852 12.3918 85.535 11.0994 87.5951 11.0994C88.2818 11.0994 88.9686 11.2514 89.8079 11.6315L89.4264 12.5438Z" fill="#77787B"/>
<path d="M91.3339 17.5614C91.2576 17.5614 91.0287 17.5614 90.9524 17.5614C91.0287 16.5731 91.105 14.8246 91.105 14.2924C91.105 13.6082 91.105 12.0117 90.9524 11.0234C91.1813 11.0234 91.4865 11.0234 91.6391 11.0234C91.7917 11.0234 92.0206 11.0234 92.2495 11.0234C92.1732 12.0117 92.0969 13.6082 92.0969 14.2924C92.0969 14.8246 92.0969 15.5848 92.0969 15.965C92.7836 15.1287 95.3016 11.9357 95.912 11.0995C96.0646 11.0995 96.1409 11.0995 96.2936 11.0995C96.3699 11.0995 96.6751 11.0995 96.7514 11.0995C96.6751 12.0878 96.5988 13.6843 96.5988 14.3685C96.5988 14.9006 96.5988 16.6492 96.7514 17.6375C96.5225 17.6375 96.3699 17.6375 96.1409 17.6375C95.912 17.6375 95.6831 17.6375 95.4542 17.6375C95.5305 16.6492 95.6068 14.9006 95.6068 14.3685C95.6068 13.6843 95.6068 12.848 95.6068 12.6199C94.7675 13.5322 92.4021 16.4971 91.7154 17.6375C91.5628 17.5615 91.4102 17.5614 91.3339 17.5614Z" fill="#77787B"/>
<path d="M98.5827 17.5614C98.5064 17.5614 98.2775 17.5614 98.2012 17.5614C98.2775 16.5731 98.2775 14.8246 98.2775 14.2924C98.2775 13.6082 98.2775 12.0117 98.2012 11.0234C98.4301 11.0234 98.7353 11.0234 98.8879 11.0234C99.0405 11.0234 99.2694 11.0234 99.4983 11.0234C99.3457 12.0878 99.3457 13.6843 99.3457 14.3685C99.3457 14.9006 99.3457 15.6609 99.3457 16.041C100.032 15.2047 102.55 12.0117 103.161 11.1755C103.313 11.1755 103.39 11.1755 103.542 11.1755C103.619 11.1755 103.924 11.1755 104 11.1755C103.924 12.0878 103.924 13.6843 103.924 14.3685C103.924 14.9006 103.924 16.6492 104 17.6375C103.771 17.6375 103.619 17.6375 103.39 17.6375C103.161 17.6375 102.932 17.6375 102.703 17.6375C102.779 16.6492 102.779 14.9006 102.779 14.3685C102.779 13.6843 102.779 12.848 102.779 12.6199C101.94 13.5322 99.5746 16.4971 98.8879 17.6375C98.8116 17.5615 98.7353 17.5614 98.5827 17.5614Z" fill="#77787B"/>
</g>
<defs>
<clipPath id="clip0_2051_3897">
<rect width="104" height="26" fill="white"/>
</clipPath>
</defs>
</svg>
