<svg width="76" height="22" viewBox="0 0 76 22" fill="none" xmlns="http://www.w3.org/2000/svg">
<g clip-path="url(#clip0_2051_3855)">
<rect y="15.4768" width="15.2335" height="2.12456" fill="#000179"/>
<rect x="26.811" y="15.4768" width="49.2042" height="2.12456" fill="#000179"/>
<path d="M3.41156 7.34352V1.94214L0.129395 4.94628V10.3021V14.7173H3.41156V11.7283L4.89653 10.3628L10.0063 14.998V10.6814L7.29533 8.16283L13.4408 2.23041H8.94022L3.41156 7.34352ZM34.8472 6.97179V1.94214L31.5651 4.93869V14.7173H34.8472V9.97593H39.0128V14.7173H42.2949V2.23041H39.0128V6.97179H34.8472ZM49.8949 6.97179H47.024V9.97593H49.8949C50.1462 9.97593 50.3442 10.0518 50.4889 10.2111C50.6336 10.3704 50.7098 10.5752 50.7098 10.8332C50.7098 11.0835 50.6336 11.2883 50.4889 11.4552C50.3442 11.6297 50.1462 11.7132 49.8949 11.7132H47.024V14.7173H50.5042C51.4865 14.7173 52.309 14.3608 52.9791 13.6401C53.6569 12.927 53.9919 11.9939 53.9919 10.8332C53.9919 10.2946 53.8549 9.80145 53.5807 9.36145C53.3066 8.91386 52.9715 8.63317 52.5603 8.50421C52.9867 8.26904 53.337 7.95042 53.5959 7.53317C53.8625 7.12352 53.9919 6.64559 53.9919 6.09179C53.9919 4.94628 53.6569 4.01317 53.0019 3.30007C52.3394 2.58697 51.5094 2.23041 50.5042 2.23041H46.2929L43.0108 5.23455V14.7173H46.2929V5.23455H49.8949C50.1462 5.23455 50.3442 5.31041 50.4889 5.46973C50.6336 5.62904 50.7098 5.83386 50.7098 6.09179C50.7098 6.34214 50.6336 6.54697 50.4889 6.72145C50.3442 6.88835 50.1462 6.97179 49.8949 6.97179ZM54.624 14.5428V6.8049V5.06766L57.9062 2.06352H66.3667L63.0845 5.06766H57.9062V6.8049H63.0845V9.80904H57.9062V11.5463H63.0845V14.5428H54.624ZM64.1887 4.98421V10.3173V14.9449L72.6797 7.19179V14.7173H75.9619V2.23041H73.1518L67.4709 7.45731V1.97248L64.1887 4.98421ZM68.202 2.23041H71.8344L68.202 5.55317V2.23041Z" fill="#000179"/>
<path d="M43.0869 18.4271V21.9471H44.61V19.3375H48.0444V21.9471H49.5675V18.4271H43.0869ZM57.7158 18.4271H51.951C51.951 21.0368 51.951 21.0368 51.2352 21.0368V21.9471H51.951C53.0096 21.9471 53.4817 21.4616 53.4817 19.3375H56.1927V21.9471H57.7158V18.4271ZM61.5919 19.7092H60.7771V18.4271H59.2464V21.9471H60.7771V20.6195H61.5919C61.5919 21.8485 61.8965 22.0002 64.8665 22.0002C68.0649 22.0002 68.1486 21.8713 68.1486 20.1947C68.1486 18.503 68.0649 18.374 64.8665 18.374C61.9498 18.374 61.5919 18.5333 61.5919 19.7092ZM64.8741 19.292C66.4961 19.292 66.6256 19.3451 66.6256 20.1947C66.6256 21.0368 66.4809 21.0899 64.8589 21.0899C63.214 21.0899 63.1226 21.0368 63.1226 20.1947C63.1226 19.3451 63.2597 19.292 64.8741 19.292ZM72.5807 18.374C69.7021 18.374 69.5498 18.5333 69.5498 20.1871C69.5498 21.8485 69.7021 22.0002 72.5807 22.0002C75.5278 22.0002 75.6268 21.803 75.6268 20.5968H74.0961C74.0961 21.014 73.9514 21.0899 72.5807 21.0899C71.0805 21.0899 71.0729 21.0671 71.0729 20.1947C71.0729 19.3223 71.0805 19.292 72.5807 19.292C73.9743 19.292 74.0961 19.3906 74.0961 19.7851H75.6268C75.6268 18.5864 75.4973 18.374 72.5807 18.374Z" fill="#E31E24"/>
<path fill-rule="evenodd" clip-rule="evenodd" d="M21.1095 0C22.4421 0 23.7139 0.273103 24.8638 0.766207C20.4622 4.07379 16.7764 7.6469 13.8598 11.6145C13.8674 12.9648 14.0806 14.0421 14.5071 14.8462C16.7383 14.2469 18.4975 12.3352 20.051 9.82414C19.9977 9.42207 19.952 9.01241 19.9063 8.61035C21.2009 6.33448 23.6606 4.15724 26.9732 2.01793C29.1816 3.75517 30.5981 6.44069 30.5981 9.46C30.5981 14.6793 26.3488 18.9124 21.1095 18.9124C19.7311 18.9124 18.4289 18.6241 17.2486 18.1007C21.6958 14.7779 25.4578 11.1441 28.3973 7.13862C28.3896 5.78828 28.1764 4.71103 27.75 3.9069C25.5187 4.50621 23.7596 6.41793 22.2061 8.92897C22.2594 9.33104 22.3051 9.74069 22.3508 10.1428C21.0486 12.4414 18.5203 14.6566 15.1544 16.811C15.2305 16.8793 11.6133 14.2393 11.6133 9.46C11.6133 4.2331 15.8626 0 21.1095 0Z" fill="#E31E24"/>
</g>
<defs>
<clipPath id="clip0_2051_3855">
<rect width="76" height="22" fill="white"/>
</clipPath>
</defs>
</svg>
