<svg width="49" height="30" viewBox="0 0 49 30" fill="none" xmlns="http://www.w3.org/2000/svg">
<g clip-path="url(#clip0_2051_4020)">
<mask id="mask0_2051_4020" style="mask-type:luminance" maskUnits="userSpaceOnUse" x="0" y="0" width="49" height="30">
<path d="M0 0H49V30H0V0Z" fill="white"/>
</mask>
<g mask="url(#mask0_2051_4020)">
<path fill-rule="evenodd" clip-rule="evenodd" d="M0 30H49V0H0V30Z" fill="#000002"/>
</g>
<path fill-rule="evenodd" clip-rule="evenodd" d="M48.2266 0.800781H0.754395V29.2191H48.2266V0.800781Z" fill="#F94F0D" stroke="#F94F0D" stroke-width="2"/>
<path fill-rule="evenodd" clip-rule="evenodd" d="M2.17188 27.7509H46.8089V2.26953H2.17188V27.7509Z" fill="#FFFFFE"/>
<path fill-rule="evenodd" clip-rule="evenodd" d="M17.7314 17.8906H17.9092V6.33765H17.7314V17.8906Z" fill="#000002"/>
<path fill-rule="evenodd" clip-rule="evenodd" d="M30.7202 17.9004H30.898V6.33765H30.7202V17.9004Z" fill="#000002"/>
<path fill-rule="evenodd" clip-rule="evenodd" d="M35.1619 8.93956H34.311V8.62939H36.59L38.4865 14.0959L40.3488 8.62939H42.6008V8.93956H41.7494V15.8429H42.6008V16.1534H39.5772V15.8429H40.4818V9.33396H40.4635L38.2381 15.8429H37.7422L35.4727 9.45639H35.4553V14.9879C35.4553 15.665 35.544 15.8429 36.0573 15.8429H36.4385V16.1534H34.311V15.8429H34.5595C35.0734 15.8429 35.1619 15.665 35.1619 14.9879V8.93956Z" fill="#000002"/>
<path fill-rule="evenodd" clip-rule="evenodd" d="M13.9375 8.93956V8.62939H10.9136V8.93956H11.7913V15.8429H8.24547V8.93956H9.12321V8.62939H6.09961V8.93956H6.97735V15.8429H6.09961V16.1534H13.1919C13.5376 16.1534 13.813 16.5573 13.813 16.8668C13.813 16.8769 13.813 16.8769 13.813 16.8858H13.9375V15.8429H13.0509V8.93956H13.9375Z" fill="#000002"/>
<path fill-rule="evenodd" clip-rule="evenodd" d="M25.3033 8.62939V8.94902H26.1278L23.5925 14.2748L21.8547 10.048C21.677 9.63434 21.5977 9.41821 21.5977 9.22132C21.5977 9.05157 21.7216 8.94902 22.0404 8.94902H22.4131V8.62939H20.2764V8.94902H20.6845C21.0571 8.94902 21.1719 9.21186 21.2961 9.51287L23.4236 14.6316L22.8294 15.8903H22.0322V16.2004H25.0643V15.8903H24.2395L27.5464 8.94902H28.344V8.62939H25.3033Z" fill="#000002"/>
<path fill-rule="evenodd" clip-rule="evenodd" d="M7.50966 21.6712H6.9126V21.4924H8.30285V21.6712H7.7148V22.9828H7.50966V21.6712Z" fill="#000002"/>
<path fill-rule="evenodd" clip-rule="evenodd" d="M11.065 21.8899C11.0463 21.6815 10.8508 21.6221 10.6267 21.6221C10.4212 21.6221 10.2531 21.7308 10.2531 21.8899C10.2531 21.9696 10.3001 22.059 10.4772 22.0884L10.9902 22.1778C11.2244 22.2175 11.3265 22.3569 11.3265 22.545C11.3265 22.8432 11.0746 23.0217 10.664 23.0217C10.2627 23.0217 10.0299 22.8629 10.0112 22.5354H10.2254C10.2254 22.7338 10.4025 22.8529 10.6737 22.8529C10.9625 22.8529 11.121 22.7338 11.121 22.5654C11.121 22.1581 10.0486 22.5257 10.0486 21.9096C10.0486 21.6221 10.2814 21.4526 10.664 21.4526C10.9535 21.4526 11.2617 21.5424 11.2804 21.8899H11.065Z" fill="#000002"/>
<path fill-rule="evenodd" clip-rule="evenodd" d="M14.313 21.4924H14.5184V22.3764C14.5184 22.8033 14.2479 23.0218 13.8657 23.0218C13.4824 23.0218 13.2119 22.8033 13.2119 22.3764V21.4924H13.4174V22.3967C13.4174 22.6746 13.5758 22.853 13.8657 22.853C14.1545 22.853 14.313 22.6746 14.313 22.3967V21.4924Z" fill="#000002"/>
<path fill-rule="evenodd" clip-rule="evenodd" d="M16.6928 21.6419H16.6841V22.9828H16.4873V21.4924H16.8052L17.4212 22.8033L18.0366 21.4924H18.3638V22.9828H18.1584V21.6419L17.533 22.9828H17.3182L16.6928 21.6419Z" fill="#000002"/>
<path fill-rule="evenodd" clip-rule="evenodd" d="M22.806 21.6419H22.7961V22.9828H22.6006V21.4924H22.9178L23.5335 22.8033L24.1399 21.4924H24.4671V22.9828H24.2617V21.6419L23.6453 22.9828H23.4311L22.806 21.6419Z" fill="#000002"/>
<path fill-rule="evenodd" clip-rule="evenodd" d="M27.1551 21.4526C27.7425 21.4526 27.9483 21.8799 27.9483 22.2372C27.9483 22.5947 27.7425 23.0217 27.1551 23.0217C26.5671 23.0217 26.3706 22.5947 26.3706 22.2372C26.3706 21.8799 26.5671 21.4526 27.1551 21.4526ZM27.1551 22.8529C27.5 22.8529 27.7338 22.6047 27.7338 22.2372C27.7338 21.8699 27.5 21.6221 27.1551 21.6221C26.8186 21.6221 26.5857 21.8699 26.5857 22.2372C26.5857 22.6047 26.8186 22.8529 27.1551 22.8529Z" fill="#000002"/>
<path fill-rule="evenodd" clip-rule="evenodd" d="M30.8319 21.8899C30.8136 21.6815 30.6081 21.6221 30.3836 21.6221C30.1875 21.6221 30.0204 21.7308 30.0204 21.8899C30.0204 21.9696 30.0664 22.059 30.2345 22.0884L30.7572 22.1778C30.9814 22.2175 31.0838 22.3569 31.0838 22.545C31.0838 22.8432 30.8409 23.0217 30.4213 23.0217C30.0291 23.0217 29.7959 22.8629 29.7676 22.5354H29.9827C29.9917 22.7338 30.1688 22.8529 30.43 22.8529C30.7289 22.8529 30.8873 22.7338 30.8873 22.5654C30.8873 22.1581 29.8146 22.5257 29.8146 21.9096C29.8146 21.6221 30.0378 21.4526 30.4213 21.4526C30.7102 21.4526 31.0187 21.5424 31.0464 21.8899H30.8319Z" fill="#000002"/>
<path fill-rule="evenodd" clip-rule="evenodd" d="M34.3593 22.5654C34.3132 22.8926 34.0234 23.0217 33.6782 23.0217C33.1838 23.0217 32.9507 22.6444 32.9507 22.2372C32.9507 21.8799 33.1468 21.4526 33.7342 21.4526C34.0704 21.4526 34.3223 21.6314 34.3409 21.8799H34.1168C34.0801 21.6918 33.9123 21.6221 33.7255 21.6221C33.398 21.6221 33.1652 21.8205 33.1652 22.2372C33.1652 22.6541 33.398 22.8529 33.7255 22.8529C33.9123 22.8529 34.0981 22.7638 34.1355 22.5654H34.3593Z" fill="#000002"/>
<path fill-rule="evenodd" clip-rule="evenodd" d="M36.9727 21.4526C37.5611 21.4526 37.7569 21.8799 37.7569 22.2372C37.7569 22.5947 37.5611 23.0217 36.9727 23.0217C36.3853 23.0217 36.1802 22.5947 36.1802 22.2372C36.1802 21.8799 36.3853 21.4526 36.9727 21.4526ZM36.9727 22.8529C37.3083 22.8529 37.5424 22.6047 37.5424 22.2372C37.5424 21.8699 37.3083 21.6221 36.9727 21.6221C36.6272 21.6221 36.3943 21.8699 36.3943 22.2372C36.3943 22.6047 36.6272 22.8529 36.9727 22.8529Z" fill="#000002"/>
<path fill-rule="evenodd" clip-rule="evenodd" d="M41.6571 21.4924H41.8722L41.3779 22.9828H41.0977L40.6768 21.6712H40.6681L40.2388 22.9828H39.9586L39.4736 21.4924H39.6881L40.0987 22.8033H40.1087L40.5373 21.4924H40.8079L41.2375 22.8033L41.6571 21.4924Z" fill="#000002"/>
<path fill-rule="evenodd" clip-rule="evenodd" d="M19.8149 23.0418H21.2983V21.4734H19.8149V23.0418Z" fill="#F94F0D"/>
</g>
<defs>
<clipPath id="clip0_2051_4020">
<rect width="49" height="30" fill="white"/>
</clipPath>
</defs>
</svg>
