<svg width="50" height="22" viewBox="0 0 50 22" fill="none" xmlns="http://www.w3.org/2000/svg">
<g clip-path="url(#clip0_2051_3892)">
<path d="M32.386 15.8709C31.4334 16.1155 30.1969 16.2332 29.1252 16.2332C26.3773 16.2332 24.5454 14.7838 24.5454 12.1295C24.5454 9.62011 26.2399 7.98947 28.7313 7.98947C29.2809 7.98947 29.8763 8.06194 30.2335 8.24312V4.58325H32.386V15.8618V15.8709ZM30.2335 10.1184C29.8178 9.93989 29.3676 9.85332 28.9145 9.8647C27.6047 9.8647 26.7254 10.6619 26.7254 12.0661C26.7254 13.5699 27.678 14.4214 29.1985 14.4214C29.4733 14.4214 29.8763 14.3942 30.2335 14.3308V10.1093V10.1184ZM50 15.8709C49.0474 16.1155 47.82 16.2332 46.7391 16.2332C43.9913 16.2332 42.1593 14.7838 42.1593 12.1295C42.1593 9.62011 43.863 7.98947 46.3453 7.98947C46.904 7.98947 47.4902 8.06194 47.8566 8.24312V4.58325H50V15.8618V15.8709ZM47.8566 10.1184C47.438 9.93859 46.9846 9.85199 46.5285 9.8647C45.2186 9.8647 44.3485 10.6619 44.3485 12.0661C44.3485 13.5699 45.2919 14.4214 46.8216 14.4214C47.0872 14.4214 47.4994 14.3942 47.8566 14.3308V10.1093V10.1184ZM35.7659 10.1002C36.114 9.95529 36.6178 9.90094 37.0483 9.90094C38.3673 9.90094 39.2832 10.6619 39.2832 12.0298C39.2832 13.6333 38.2757 14.358 36.92 14.3852V16.2332H37.03C39.8053 16.2332 41.4632 14.6932 41.4632 11.9574C41.4632 9.45704 39.6954 7.98947 37.0849 7.98947C35.7568 7.98947 34.4561 8.29748 33.5951 8.65078V19.2499H35.7568V10.1002H35.7659Z" fill="#3C3C3B"/>
<path d="M13.2524 9.8169C13.204 9.84258 13.1499 9.85602 13.0949 9.85602C13.0399 9.85602 12.9858 9.84258 12.9373 9.8169L12.4276 9.50517C12.3824 9.47752 12.3444 9.43985 12.3164 9.39515V9.38598C12.2837 9.33669 12.2645 9.27981 12.2608 9.22095L12.2423 8.62501C12.2432 8.56978 12.2581 8.51567 12.2856 8.46761C12.3131 8.41956 12.3524 8.3791 12.3998 8.34996L18.609 4.7743L9.89762 0.0801096C9.78787 0.027391 9.66746 0 9.54545 0C9.42345 0 9.30304 0.027391 9.19329 0.0801096L0.481906 4.76514L10.2405 10.3853C10.2879 10.4145 10.3272 10.4549 10.3547 10.503C10.3823 10.551 10.3972 10.6052 10.3981 10.6604V18.8569C10.3972 18.9121 10.3823 18.9662 10.3547 19.0143C10.3272 19.0623 10.2879 19.1028 10.2405 19.1319L9.71227 19.407C9.66428 19.4347 9.61022 19.4504 9.55472 19.4528H9.54545C9.48761 19.4547 9.43023 19.4421 9.37864 19.4162L8.8504 19.1228C8.80125 19.0947 8.76014 19.0548 8.73095 19.0066C8.70176 18.9585 8.68546 18.9038 8.68358 18.8477V11.5497C8.6801 11.52 8.66998 11.4914 8.65395 11.466C8.63792 11.4407 8.61639 11.4191 8.59091 11.403L0 6.46128V16.1614C0 16.3723 0.157546 16.6473 0.342895 16.7573L9.20256 21.9191C9.30887 21.9723 9.42633 22 9.54545 22C9.66458 22 9.78204 21.9723 9.88835 21.9191L18.748 16.7573C18.9334 16.6381 19.0909 16.3723 19.0909 16.1614V6.46128L13.2524 9.8169Z" fill="url(#paint0_linear_2051_3892)"/>
</g>
<defs>
<linearGradient id="paint0_linear_2051_3892" x1="0.0926751" y1="18.6735" x2="9.67261" y2="10.5498" gradientUnits="userSpaceOnUse">
<stop stop-color="#BE0737"/>
<stop offset="0.04" stop-color="#C00736"/>
<stop offset="0.63" stop-color="#D8062C"/>
<stop offset="1" stop-color="#E10528"/>
</linearGradient>
<clipPath id="clip0_2051_3892">
<rect width="50" height="22" fill="white"/>
</clipPath>
</defs>
</svg>
