<svg width="66" height="22" viewBox="0 0 66 22" fill="none" xmlns="http://www.w3.org/2000/svg">
<g clip-path="url(#clip0_2051_3812)">
<path d="M51.1774 13.1103C50.8803 13.4422 50.5176 13.7076 50.1128 13.8892C49.7079 14.0708 49.2699 14.1647 48.8269 14.1648C47.9927 14.1499 47.1975 13.8047 46.6127 13.2034C46.0279 12.6022 45.7003 11.793 45.7003 10.9501C45.7003 10.1072 46.0279 9.29797 46.6127 8.69672C47.1975 8.09547 47.9927 7.75025 48.8269 7.7354C49.5129 7.7354 50.1475 7.95806 50.6684 8.3315L52.4031 5.8672C51.3595 5.11449 50.1092 4.7099 48.8269 4.70994C47.1885 4.70994 45.6172 5.36743 44.4586 6.53778C43.3001 7.70812 42.6492 9.29545 42.6492 10.9506C42.6492 12.6057 43.3001 14.193 44.4586 15.3634C45.6172 16.5337 47.1885 17.1912 48.8269 17.1912C50.3423 17.19 51.804 16.6248 52.9329 15.6036L51.1774 13.1103ZM37.1308 5.08038L35.403 7.53869C36.2711 7.62621 37.0726 8.04785 37.6413 8.71621C38.21 9.38456 38.5023 10.2484 38.4575 11.1285C38.4128 12.0087 38.0345 12.8377 37.401 13.4437C36.7675 14.0497 35.9275 14.3862 35.0551 14.3834V2H32.1777V4.70994C31.3664 4.70994 30.5631 4.87135 29.8136 5.18498C29.0641 5.4986 28.3831 5.95828 27.8094 6.53778C27.2358 7.11727 26.7807 7.80524 26.4703 8.56239C26.1598 9.31953 26 10.131 26 10.9506C26 11.7701 26.1598 12.5816 26.4703 13.3388C26.7807 14.0959 27.2358 14.7839 27.8094 15.3634C28.3831 15.9429 29.0641 16.4026 29.8136 16.7162C30.5631 17.0298 31.3664 17.1912 32.1777 17.1912V20H35.0551V17.1902C36.5111 17.1927 37.9211 16.675 39.0359 15.7288C40.1506 14.7825 40.8983 13.4686 41.1467 12.0193C41.3952 10.57 41.1283 9.0786 40.3934 7.80881C39.6585 6.53902 38.5029 5.5726 37.1308 5.08038ZM28.7785 10.9506C28.7785 10.4999 28.8664 10.0537 29.0371 9.63741C29.2079 9.2211 29.4581 8.84284 29.7736 8.52424C30.0891 8.20564 30.4636 7.95295 30.8757 7.78059C31.2879 7.60823 31.7297 7.51959 32.1757 7.51972V14.3814C31.7297 14.3816 31.288 14.2929 30.8759 14.1205C30.4638 13.9482 30.0893 13.6955 29.7739 13.3768C29.4585 13.0582 29.2084 12.68 29.0377 12.2637C28.8671 11.8474 28.7794 11.4012 28.7795 10.9506H28.7785ZM57.8513 16.9406H54.7071V4.95856H57.8504L57.8513 16.9406ZM58.2497 10.9496L62.5029 4.95856H65.7746L61.4868 10.8637L66 16.9406H62.6828L58.2497 10.9496Z" fill="black"/>
<path d="M9.00096 7H21C20.4049 5.60155 19.5407 4.34685 18.4615 3.31442C17.3823 2.282 16.1112 1.49409 14.728 1L9 7H9.00096Z" fill="#E84E0E"/>
<path d="M21.6648 8.28294H6.47904C6.30562 8.28323 6.13602 8.232 5.99177 8.13575C5.84752 8.03949 5.73512 7.90256 5.66884 7.74232C5.60256 7.58208 5.58539 7.40577 5.61951 7.23576C5.65363 7.06575 5.7375 6.9097 5.86048 6.78743L12.5404 0.109379C12.0304 0.0374997 11.516 0.000952937 11.0009 0C4.92467 0 0 4.92402 0 10.9995C0 11.8119 0.0914922 12.6034 0.258565 13.368H15.6064C15.7798 13.3678 15.9494 13.419 16.0937 13.5152C16.2379 13.6115 16.3503 13.7484 16.4166 13.9087C16.4829 14.0689 16.5 14.2452 16.4659 14.4152C16.4318 14.5852 16.3479 14.7413 16.225 14.8635L9.23176 21.8558C9.80856 21.9493 10.3973 22 10.999 22C17.0752 22 21.9999 17.076 21.9999 11.0015C22.0039 10.0618 21.8855 9.152 21.6648 8.28294Z" fill="#E84E0E"/>
<path d="M14 15H1C1.59519 16.3808 2.49221 17.6285 3.63287 18.6622C4.77352 19.6958 6.13235 20.4923 7.62122 21L14 15Z" fill="#E84E0E"/>
</g>
<defs>
<clipPath id="clip0_2051_3812">
<rect width="66" height="22" fill="white"/>
</clipPath>
</defs>
</svg>
