<svg width="105" height="22" viewBox="0 0 105 22" fill="none" xmlns="http://www.w3.org/2000/svg">
<g clip-path="url(#clip0_2051_4015)">
<path fill-rule="evenodd" clip-rule="evenodd" d="M98.5173 6.31235H100.696L100.682 9.72235H101.156L102.399 6.31235H104.756L103.064 10.8174L105 15.8043H102.45L101.196 11.9873H100.682L100.696 15.8043H98.5173V6.31235ZM91.1787 6.31235H93.3439V9.735H94.894V6.3118H97.0575V15.8037H94.894V11.9993H93.3439V15.8037H91.1787V6.31235ZM83.6334 15.8163H85.8878L86.1576 14.1751H87.7061L87.9759 15.8163H90.2302L88.3344 6.3261H85.5415L83.6334 15.8163ZM86.9377 9.19985L87.3476 12.0885H86.5144L86.9377 9.19985ZM77.5857 15.8043H80.2245C80.8007 15.8043 83.1969 15.5617 83.2096 12.6858C83.2096 10.2713 81.3531 9.8505 80.1481 9.8505H79.7514V8.59045H82.6844V6.3129H77.5857V15.8043ZM79.7514 13.8952V11.7458H80.0716C80.3403 11.7458 81.0329 11.7579 81.0329 12.7375C81.0329 13.7313 80.3403 13.8952 80.0716 13.8952H79.7514ZM68.9911 6.31235H70.8743L72.538 8.5514L74.2178 6.31235H76.0882V15.8043H73.8699V10.0149L72.538 11.6688L71.2072 10.0144V15.8043H68.9911V6.31235ZM64.4171 15.9192C67.0432 15.9192 67.9263 13.475 67.9263 11.0462C67.9263 8.61685 67.0432 6.1732 64.4171 6.1732C61.7916 6.1732 60.9079 8.61685 60.9079 11.0462C60.9079 13.475 61.7916 15.9192 64.4171 15.9192ZM64.4171 13.6153C63.6342 13.6153 63.2392 12.7133 63.2392 11.0457C63.2392 9.3786 63.6342 8.4755 64.4171 8.4755C65.1999 8.4755 65.5949 9.3786 65.5949 11.0462C65.5949 12.7133 65.1999 13.6153 64.4171 13.6153ZM54.4889 15.8043H56.705V12.6748H57.4491C59.6386 12.6748 60.3184 10.7146 60.3184 9.46605C60.3184 8.2456 59.5356 6.31235 57.4491 6.31235H54.4889V15.8043ZM56.705 8.39905H57.2308C57.7306 8.39905 58.0513 8.7043 58.0513 9.49355C58.0513 10.5111 57.5123 10.5864 57.2308 10.5864H56.705V8.39905ZM47.1747 6.31235H53.2208V15.8043H51.0047V8.602H49.3908V15.8037H47.1747V6.31235ZM42.6267 9.9902C42.9846 9.9902 43.6395 9.76085 43.6395 9.06125C43.6395 8.2346 42.8838 8.18235 42.6644 8.18235C42.4095 8.18235 41.9231 8.22195 41.4483 8.45075L41.4228 6.38825C42.1785 6.19795 42.717 6.1468 43.3564 6.1468C45.1769 6.1468 45.9836 7.4074 45.9836 8.63995C45.9836 9.8373 45.291 10.5605 44.6129 10.8416V10.9302C45.2666 11.1358 46.137 11.7573 46.137 13.2083C46.137 15.0035 44.8821 15.9946 43.2672 15.9946C42.409 15.983 41.8455 15.8681 41.1663 15.4995L41.2051 13.5261C41.8328 13.7945 42.2555 13.8193 42.6788 13.8193C43.3963 13.8193 43.6771 13.2968 43.6771 12.9168C43.6771 12.3816 43.3314 12.0258 42.5763 12.0258H41.6788V9.99075H42.6267V9.9902ZM33.9174 15.8043H36.1585L36.441 14.162H37.9906L38.2593 15.8043H40.5004L38.6045 6.31235H35.8122L33.9174 15.8043ZM37.2083 9.17565L37.6316 12.0764H36.7856L37.2083 9.17565ZM29.626 6.31235H34.1717V8.67845H31.8797V15.8043H29.626V6.31235ZM11.0877 0C4.97127 0 0 4.9335 0 11.0055C0 17.066 4.97182 22 11.0877 22C17.1903 22 22.161 17.066 22.161 11.0055C22.161 4.9335 17.1903 0 11.0877 0ZM11.0877 21.45C5.27931 21.45 0.554025 16.7635 0.554025 11.0055C0.554025 5.23875 5.27709 0.55 11.0877 0.55C16.8867 0.55 21.607 5.23985 21.607 11.0055C21.607 16.7624 16.885 21.45 11.0877 21.45Z" fill="#476BF0"/>
<path fill-rule="evenodd" clip-rule="evenodd" d="M6.70534 4.68209C9.35831 3.5053 12.5972 3.58193 14.3353 4.35368C14.8817 4.6071 15.2491 4.76036 15.4155 5.06249C13.6115 4.58083 12.8372 4.4938 11.327 4.53047C9.17984 4.56879 6.32313 5.41607 5.23141 6.06358L4.7509 6.65963C6.32313 5.73243 9.25672 5.12707 10.8833 5.07562C12.6988 5.05099 14.1069 5.21574 15.4029 5.68372C15.326 6.01212 15.1612 6.17742 14.8823 6.34272C9.70154 5.44289 6.64109 6.50583 3.8728 8.30384L3.67071 8.89825C6.75642 6.78552 10.539 6.20369 14.1843 6.83587C12.8762 7.29181 11.3144 7.39307 10.0069 7.69465C8.88988 7.94862 8.29295 8.02525 6.80529 8.52004C5.29676 9.01374 4.40548 9.52003 3.84809 10.1659C3.5812 10.4708 3.37801 10.8243 3.32639 11.2031C3.30278 11.4303 3.31541 11.6344 3.39229 11.838C3.4527 12.0148 3.59328 12.1916 3.7465 12.3689C3.56967 12.6722 3.41481 13.0663 3.67071 13.5222C3.78439 13.7357 4.07654 13.9508 4.35716 14.1555L4.27863 14.3815C4.24019 14.6492 4.20339 14.9644 4.38132 15.2299C4.685 15.711 5.05349 16.0285 5.63724 16.3322C5.7273 16.7252 5.86569 17.0405 6.17047 17.3207C6.81792 17.9146 8.26659 19.0542 10.8432 19.2321C12.7746 19.3596 14.1579 18.7761 14.6791 18.5227L15.3134 18.1943C14.2348 18.6234 12.4193 18.8774 10.9322 18.7504C8.77401 18.5731 6.84538 17.1686 6.60375 16.7625C6.67898 16.8117 6.78113 16.8506 6.86844 16.8894C9.39621 18.1045 12.6593 18.7635 16.8373 17.0668L17.1816 16.7373C13.3831 17.9141 10.0579 17.8774 6.48843 16.0159C6.52742 15.8391 6.60375 15.6847 6.7674 15.561C7.68119 15.9633 8.55819 16.2945 9.6252 16.509C10.8696 16.7373 12.2914 16.7887 13.4605 16.7373C14.6412 16.6869 16.9767 16.1045 18.0822 15.5222C18.1832 15.4341 18.2338 15.283 18.3348 15.1806C16.1777 15.9633 13.6121 16.3322 12.0635 16.2173C10.5522 16.1045 9.20785 15.9261 7.42858 15.1166C7.77071 14.9781 8.12656 14.8637 8.48241 14.7608C9.65047 15.1166 10.8432 15.3301 12.2529 15.3946C13.6511 15.4581 16.9136 14.9404 18.9702 13.6995C19.0344 13.5222 19.0976 13.3306 19.0976 13.3306C19.0976 13.3306 16.2403 14.8522 13.0036 14.8522C11.4918 14.8522 10.5654 14.6355 9.88001 14.4713C11.4028 14.1921 13.321 13.9639 15.4781 13.4204C16.5698 13.1412 17.9164 12.5074 18.5259 11.9765C19.0465 11.5069 19.4534 10.8988 19.3145 10.2808C19.287 10.1144 19.0591 9.72419 18.7796 9.58353C19.0465 9.24199 19.0213 8.95025 18.9839 8.69848C18.9576 8.50581 18.8686 8.29235 18.756 8.10297C18.5732 7.85298 18.3385 7.6452 18.0679 7.49378C18.1207 7.22798 18.0853 6.95227 17.9669 6.70834C17.7005 6.25241 17.2189 5.86106 16.393 5.44289C16.3551 5.27759 16.2524 5.06249 16.0761 4.84793C15.0355 3.82221 13.3331 3.32851 11.8976 3.30279C11.818 3.301 11.7384 3.30009 11.6587 3.30005C9.97996 3.30005 8.63233 3.67607 7.79816 4.06414C7.36433 4.25133 7.03429 4.45494 6.70534 4.68209ZM16.2903 6.06358C16.6473 6.29182 17.0536 6.6339 17.1031 6.98858C16.723 6.84737 16.3167 6.69849 15.9235 6.59614C16.0509 6.45657 16.2398 6.24146 16.2903 6.06358ZM14.3858 7.64648C14.8191 7.48064 15.1096 7.30494 15.365 7.10133C15.9345 7.2524 16.4682 7.44342 16.9021 7.63225C16.8274 7.74336 16.3924 8.14402 16.2596 8.14402C16.2527 8.14446 16.2459 8.14314 16.2398 8.14019C15.6319 7.97434 15.0986 7.77183 14.3858 7.64648ZM17.8027 8.15223C18.1448 8.44341 18.2458 8.64593 18.0816 8.96284C17.8543 8.79864 17.611 8.70942 17.3458 8.58299C17.5094 8.456 17.6626 8.31807 17.8027 8.15223ZM7.2512 9.31807C8.83826 8.84735 10.6922 8.49541 12.3693 8.29235C13.5226 8.15223 14.1338 8.28031 15.226 8.57094C12.4199 9.31752 9.65046 9.55671 7.00903 10.3301C4.87995 10.947 4.31487 11.7236 4.30608 11.7236C3.36483 10.4319 6.62791 9.50909 7.2512 9.31807ZM8.7504 10.8742C11.098 10.3679 13.2826 10.052 14.1837 9.82436C15.2766 9.55671 16.0382 9.30493 16.5698 9.0526C16.5956 9.01429 17.4589 9.43137 17.5473 9.53098C17.2563 9.77291 16.851 9.97652 16.4051 10.1265C15.0723 10.6081 12.6478 11.1139 11.3655 11.3071C10.07 11.5211 8.98873 11.6848 7.55599 12.063C6.72951 12.2803 6.17047 12.5331 5.76409 12.7997C5.45931 12.6218 5.28193 12.572 5.00296 12.3432C5.99309 11.5069 8.01288 11.0389 8.74985 10.8742H8.7504ZM8.16335 12.9267C10.3984 12.3799 12.3682 12.2797 15.0855 11.5463C16.3924 11.2031 17.3452 10.8347 17.9427 10.3815C18.0306 10.3038 18.119 10.2414 18.2091 10.1659C18.996 11.381 16.0377 12.318 14.0173 12.7504C12.8998 12.9759 11.3506 13.254 10.8427 13.3443C9.52471 13.5594 9.09033 13.6738 8.17653 13.9393C7.71963 13.7614 7.26219 13.5715 6.84483 13.3558C7.26219 13.179 7.71963 13.0394 8.1628 12.9272L8.16335 12.9267ZM5.06612 13.3306C4.97715 13.4073 4.86238 13.4839 4.77396 13.5715C4.57188 13.4565 4.36759 13.2058 4.46863 12.9759C4.67182 13.104 4.82394 13.2058 5.06612 13.3306ZM5.99254 13.8013C6.37365 13.9787 6.76685 14.1407 7.13478 14.3065C6.88733 14.3967 6.64963 14.5115 6.42527 14.6492C6.12218 14.4843 5.82158 14.315 5.52356 14.1412C5.65042 14.0274 5.81461 13.9141 5.99254 13.8008V13.8013ZM5.84152 15.1292C5.75201 15.2562 5.68776 15.3563 5.65097 15.4844C5.33246 15.2179 5.17924 15.0028 5.19297 14.7614C5.40879 14.9009 5.62461 15.0142 5.84097 15.1292H5.84152Z" fill="#476BF0"/>
</g>
<defs>
<clipPath id="clip0_2051_4015">
<rect width="105" height="22" fill="white"/>
</clipPath>
</defs>
</svg>
