<svg width="80" height="22" viewBox="0 0 80 22" fill="none" xmlns="http://www.w3.org/2000/svg">
<g clip-path="url(#clip0_2051_3825)">
<path fill-rule="evenodd" clip-rule="evenodd" d="M57.2863 12.2668C56.7421 12.2668 56.2437 12.4147 55.7984 12.6731L50.2902 4.34559L44.2924 11.0909L40.0734 4.34559L33.6753 11.9521C33.7023 11.7211 33.7117 11.4985 33.7117 11.2586C33.7117 9.40762 33.0673 7.7045 32.0056 6.37246L20.7805 16.4952C22.1421 18.0211 24.0928 18.9744 26.2525 18.9744C27.296 18.9744 28.2943 18.7524 29.1922 18.3551C30.2632 17.929 31.2615 17.263 32.0602 16.3378L35.8262 11.9706L39.9812 18.5771L45.9162 11.9143L50.2362 18.716L54.3016 14.6072C54.3111 14.6162 54.3195 14.6162 54.3284 14.6162C54.2558 14.8759 54.2205 15.1536 54.2205 15.4396C54.2205 17.1888 55.5989 18.6136 57.2863 18.6136C57.5316 18.6136 57.7679 18.5771 57.9947 18.5208C58.8747 18.3737 59.3832 18.0589 60.1458 17.4479L65.7532 11.3136C65.78 15.5336 69.12 18.9661 73.2026 18.9661C76.2163 18.9661 78.8211 17.0966 80 14.4127L78.2479 14.4038C75.3458 17.9475 70.8626 18.3826 68.44 14.2559L73.9932 8.41657C73.9842 8.38074 73.7032 9.21313 73.73 9.37053C73.73 10.6834 74.0658 11.2758 75.2095 11.9898C79.1916 13.3577 81.2889 6.85358 76.6063 4.42044C75.6895 3.89197 74.4826 3.54968 73.2026 3.54968C70.1 3.54968 67.4226 5.53049 66.3074 8.3347L63.5389 4.29952L54.8637 4.33727L61.1616 14.1453L60.3268 15.0698C60.1458 13.4978 58.8479 12.2668 57.2863 12.2668ZM26.2526 3.54969C22.1509 3.54969 18.7928 7.01994 18.7928 11.2586C18.7928 12.2105 18.9659 13.1267 19.2741 13.979L15.9624 16.9117C15.8538 17.0231 15.7446 17.0231 15.6355 16.9117C13.5931 14.4223 11.5514 11.9246 9.50963 9.44408C9.50963 9.40762 9.50963 9.38908 9.50963 9.36158L13.6935 4.0033C13.7393 4.66037 14.7369 6.56632 16.6243 6.66867C17.9765 6.74227 19.0657 6.02119 19.6009 5.05768C20.3269 3.76338 20.2541 2.31041 19.2376 1.05194C18.2394 0.172868 17.6496 -0.0401825 16.3338 0.00588254C15.1906 0.13576 14.4201 0.625842 13.5843 1.51387L9.28379 6.88108L9.29253 0.682141L0.0181961 5.0404L0 22L9.29253 17.5042V11.9143L15.5715 19.0211C15.6718 19.105 15.7622 19.105 15.8808 19.0211C17.2323 17.8004 18.5939 16.588 19.9461 15.366C19.9461 15.3756 19.9548 15.3756 19.9548 15.3756L31.0889 5.40058C31.0795 5.40058 31.0707 5.39162 31.0707 5.38141C31.0707 5.38141 31.0795 5.37308 31.0889 5.37308C31.0168 5.30781 30.944 5.26177 30.8712 5.21571C29.6006 4.17925 27.9944 3.54969 26.2526 3.54969ZM28.1582 11.6375C29.5467 11.6375 30.6812 12.8595 30.6812 14.3489C30.6812 15.8383 29.5467 17.0591 28.1582 17.0591C26.7696 17.0591 25.6352 15.8383 25.6352 14.3489C25.6352 12.8595 26.7696 11.6375 28.1582 11.6375Z" fill="#DA1F2A"/>
</g>
<defs>
<clipPath id="clip0_2051_3825">
<rect width="80" height="22" fill="white"/>
</clipPath>
</defs>
</svg>
