<svg width="86" height="34" viewBox="0 0 86 34" fill="none" xmlns="http://www.w3.org/2000/svg">
<g clip-path="url(#clip0_2051_3850)">
<path fill-rule="evenodd" clip-rule="evenodd" d="M60.8135 16.086C60.5347 16.2276 60.5005 16.3284 60.467 17.1092C60.4366 17.8171 60.4691 18.0042 60.6453 18.1339C60.805 18.2515 61.5939 18.2926 63.6906 18.2926C65.4047 18.2926 66.6147 18.3434 66.7597 18.4216C66.9749 18.5377 66.9984 18.6908 66.9935 19.9479C66.9881 21.315 66.9842 21.3344 66.8098 20.8469C66.7118 20.5727 66.6306 20.3356 66.6296 20.3198C66.6287 20.3041 66.4073 20.178 66.1379 20.0395C65.71 19.8197 65.4163 19.7884 63.8184 19.7929C62.1876 19.7975 61.9282 19.828 61.432 20.0732C60.4633 20.5522 60.4427 20.6524 60.4426 24.9193C60.4424 28.6342 60.4855 29.0605 60.9044 29.4847C61.6013 30.1906 61.6083 30.1917 65.2051 30.1917C68.9171 30.1917 68.9409 30.1869 69.4708 29.323C69.712 28.9302 69.7205 28.716 69.7205 23.0318C69.7205 16.4063 69.7527 16.6424 68.7872 16.1718C68.3188 15.9434 68.0181 15.9254 64.7021 15.9271C62.0715 15.9285 61.0408 15.9706 60.8135 16.086ZM4.77553 16.3353C4.1513 16.645 3.60934 17.3475 3.40992 18.1057C3.3378 18.3798 3.22646 18.7162 3.1625 18.8533C3.09855 18.9903 2.99228 19.3268 2.92647 19.6009C2.86065 19.875 2.69451 20.4637 2.55732 20.9092C2.42013 21.3546 2.19016 22.1115 2.04616 22.5912C1.70262 23.7363 1.50209 24.3982 1.17798 25.457C1.03101 25.9367 0.830974 26.6376 0.733244 27.0145C0.635391 27.3914 0.505992 27.8119 0.445499 27.949C0.203031 28.4982 -0.0581169 29.6611 0.0114071 29.8816C0.145012 30.306 1.95041 30.3743 2.3516 29.9702C2.43473 29.8865 2.76725 28.9208 3.09038 27.8244C3.41363 26.7279 3.72686 25.7186 3.78661 25.5816C3.84636 25.4445 4.07163 24.7156 4.28713 23.9618C4.50263 23.208 4.77999 22.2548 4.90332 21.8436C5.02666 21.4325 5.23152 20.7316 5.35857 20.2862C5.6984 19.0943 6.0214 18.4993 6.38189 18.4014C6.55198 18.3553 7.03742 18.3119 7.46074 18.3051L8.23033 18.2926L8.26485 24.0198C8.30505 30.6912 8.19706 30.1917 9.59929 30.1917C11.0719 30.1917 10.9545 30.8027 10.9613 23.1022C10.9666 17.0911 10.9488 16.4942 10.7583 16.2822C10.5669 16.0691 10.333 16.0502 7.93999 16.0549C5.50368 16.0598 5.2935 16.0784 4.77553 16.3353ZM13.9281 20.0325L13.6188 20.2717L13.5954 24.2972C13.5688 28.8861 13.6208 29.2577 14.3701 29.8334C14.8065 30.1685 14.8112 30.1692 17.0673 30.1804L19.3275 30.1917L19.7771 29.8467C20.0969 29.6014 20.2521 29.3674 20.314 29.0368L20.4011 28.5719L20.5711 29.084C20.8267 29.8537 21.1957 30.14 21.955 30.1575C22.9919 30.1813 22.9504 30.3961 22.9548 24.9988L22.9588 20.3042L22.6328 20.0461C22.1396 19.6552 21.0061 19.6811 20.5645 20.0933L20.2372 20.3989V24.1544V27.9101L18.4333 27.8672C16.8187 27.8288 16.6111 27.7989 16.454 27.5825C16.3123 27.3873 16.2785 26.6629 16.2785 23.8219V20.3031L15.9193 20.0454C15.4375 19.6999 14.3671 19.693 13.9281 20.0325ZM25.8797 20.0974L25.548 20.4069L25.5833 25.077C25.6246 30.544 25.5327 30.1917 26.9174 30.1917C28.3078 30.1917 28.2164 30.5564 28.2164 25.0093V20.272L27.9071 20.0326C27.4243 19.6589 26.3113 19.6946 25.8797 20.0974ZM32.5066 20.6911C31.9553 21.188 30.8944 22.1551 30.149 22.8404L28.7937 24.0864L28.7835 25.0388L28.7731 25.9914L29.9721 27.0947C30.6315 27.7016 31.2584 28.2823 31.3651 28.385C32.9436 29.9048 33.3702 30.254 33.6478 30.254C34.0054 30.254 34.9829 29.2799 35.0464 28.8601C35.089 28.5789 34.438 27.8875 32.3156 25.9602L31.2231 24.9682L31.7616 24.4651C32.0578 24.1882 32.8982 23.4057 33.6292 22.7262C34.7896 21.6474 34.9585 21.4396 34.9585 21.0895C34.9585 20.6161 34.2044 19.7878 33.7734 19.7878C33.6197 19.7878 33.089 20.1662 32.5066 20.6911ZM37.3135 20.0292C37.0514 20.2321 37.0081 20.3685 37.0042 21.0037C36.9969 22.1904 36.9027 22.1551 40.08 22.1551C43.3333 22.1551 43.3706 22.1669 43.3705 23.1902V23.8372H40.8654C39.4877 23.8372 38.2099 23.8797 38.0258 23.9317C37.8418 23.9836 37.5356 24.2316 37.3454 24.4826L36.9997 24.9392V27.0047C36.9997 29.2574 37.0555 29.4687 37.7814 29.9651C38.0709 30.1628 38.3887 30.1917 40.2779 30.1917C42.3389 30.1917 42.462 30.178 42.8418 29.9051C43.0944 29.7237 43.2958 29.4333 43.3909 29.1138L43.541 28.6091L43.7035 29.1512C43.7951 29.4562 44.0045 29.7936 44.1824 29.9227C44.6076 30.2312 45.516 30.2422 45.8443 29.9429C46.0831 29.7253 46.0922 29.5614 46.0922 25.4982C46.0922 22.355 46.0528 21.2086 45.9376 21.0009C45.6559 20.4934 45.4201 20.2659 44.9261 20.0255C44.4812 19.809 44.1332 19.788 41.0279 19.7905C37.8747 19.7931 37.5953 19.8111 37.3135 20.0292ZM49.5561 20.0732C49.1378 20.2801 48.9314 20.4879 48.7261 20.9092C48.456 21.4632 48.4528 21.5398 48.4478 27.4238C48.4417 34.5029 48.3358 33.992 49.8089 33.992C51.1683 33.992 51.1643 33.9983 51.1644 31.8961L51.1645 30.1917H53.855C56.3228 30.1917 56.5793 30.1712 56.9531 29.9436C57.1771 29.8071 57.4683 29.5114 57.6002 29.2864C57.8225 28.9067 57.8404 28.6038 57.8482 25.0849C57.8558 21.6485 57.8357 21.26 57.6356 20.9452C57.3014 20.4195 57.1083 20.2489 56.574 20.0081C56.1495 19.8166 55.6953 19.7884 53.0992 19.7929C50.2747 19.7977 50.0826 19.8129 49.5561 20.0732ZM51.3569 22.4321C51.194 22.6662 51.1643 23.2333 51.1643 26.1078C51.1643 28.2905 51.2085 29.5064 51.288 29.5064C51.356 29.5064 51.4117 29.3402 51.4117 29.137C51.4117 28.904 51.549 28.6099 51.7833 28.3412C52.1548 27.9151 52.1554 27.9148 53.4374 27.8671C54.2706 27.8359 54.7905 27.7602 54.9214 27.6508C55.0956 27.5053 55.1229 27.1379 55.1229 24.9478C55.1229 22.5693 55.1082 22.4052 54.8837 22.2841C54.752 22.2132 53.9479 22.1551 53.0968 22.1551C51.6381 22.1551 51.5384 22.171 51.3569 22.4321ZM63.344 22.461C63.0433 22.7637 63.0402 22.7898 63.0442 25.0464C63.0473 26.8821 63.0845 27.3744 63.235 27.5752C63.4046 27.8014 63.5666 27.8244 64.9939 27.8244C65.8586 27.8244 66.6634 27.7841 66.7824 27.7348C66.9794 27.6534 66.9989 27.3974 66.9989 24.9002V22.1551H65.3233C63.709 22.1551 63.6364 22.1664 63.344 22.461ZM40.079 25.7659C39.6483 25.9412 39.4957 27.3466 39.852 27.8589C40.0347 28.1218 40.1292 28.1358 41.7076 28.1358H43.3706V26.8899V25.6439L41.8552 25.6517C41.0217 25.6561 40.2224 25.7074 40.079 25.7659Z" fill="black"/>
<path fill-rule="evenodd" clip-rule="evenodd" d="M72.509 0.232304C71.6301 0.704249 71.6402 0.625695 71.6344 7.12702L71.6292 12.947L71.9104 13.3713C72.4893 14.245 72.3877 14.2324 78.8582 14.2325C85.2818 14.2328 85.2822 14.2328 85.7671 13.431C85.9862 13.069 85.9999 12.6983 85.9999 7.11428C85.9999 1.49378 85.9874 1.16158 85.763 0.790795C85.277 -0.0127228 85.3465 -0.0047302 78.8269 0.00101457C73.3796 0.00588513 72.8979 0.023494 72.509 0.232304ZM73.0849 1.25462C72.735 1.46006 72.8247 1.67299 73.6114 2.50373L74.3548 3.28877V7.11079V10.9327L73.726 11.5525C72.9954 12.2726 72.8407 12.5169 72.9438 12.7876C73.0764 13.1359 73.4109 12.9989 74.1413 12.2971L74.8562 11.6102H78.8271H82.7979L83.5235 12.3079C84.2611 13.0169 84.6546 13.1413 84.7403 12.6923C84.7677 12.5487 84.5076 12.1763 84.0294 11.6743L83.2751 10.8825V7.11428V3.34609L84.0185 2.5658C84.8012 1.74405 84.9119 1.45919 84.5286 1.25237C84.347 1.15446 84.2282 1.18818 83.9937 1.40411C83.8279 1.55685 83.4589 1.89254 83.1737 2.15006L82.6549 2.61838H78.8115H74.9681L74.169 1.86906C73.7295 1.45694 73.3546 1.12149 73.3358 1.12349C73.3171 1.12561 73.2041 1.18456 73.0849 1.25462ZM75.4526 3.73137L75.1601 3.97027V7.11441V10.2587L75.4526 10.4973C75.7231 10.718 75.9776 10.736 78.8343 10.736H81.9236L82.2276 10.4294L82.5318 10.1229V7.11428V4.10565L82.2276 3.79918L81.9236 3.49258H78.8343C75.9769 3.49258 75.7231 3.51044 75.4526 3.73137Z" fill="url(#paint0_linear_2051_3850)"/>
</g>
<defs>
<linearGradient id="paint0_linear_2051_3850" x1="78.8145" y1="0" x2="78.8145" y2="14.2326" gradientUnits="userSpaceOnUse">
<stop stop-color="#EE6224"/>
<stop offset="1" stop-color="#E22237"/>
</linearGradient>
<clipPath id="clip0_2051_3850">
<rect width="86" height="34" fill="white"/>
</clipPath>
</defs>
</svg>
