<svg width="122" height="28" viewBox="0 0 122 28" fill="none" xmlns="http://www.w3.org/2000/svg">
<mask id="mask0_2051_3681" style="mask-type:luminance" maskUnits="userSpaceOnUse" x="0" y="0" width="122" height="28">
<path d="M122 0H0V28H122V0Z" fill="white"/>
</mask>
<g mask="url(#mask0_2051_3681)">
<path d="M90.4834 26.3802V22.1802H92.0999C92.4944 22.1802 92.8217 22.3062 93.082 22.5582C93.3423 22.8102 93.4724 23.1242 93.4724 23.5002C93.4724 23.8762 93.3423 24.1902 93.082 24.4422C92.8217 24.6942 92.4944 24.8202 92.0999 24.8202H90.9409V26.3802H90.4834ZM90.9409 24.4002H92.0999C92.3764 24.4002 92.5981 24.3182 92.7648 24.1542C92.9315 23.9902 93.0149 23.7722 93.0149 23.5002C93.0149 23.2282 92.9315 23.0102 92.7648 22.8462C92.5981 22.6822 92.3764 22.6002 92.0999 22.6002H90.9409V24.4002Z" fill="white"/>
<path d="M95.8824 26.3799V25.9899C95.8214 26.0739 95.7441 26.1499 95.6506 26.2179C95.4351 26.3659 95.1972 26.4399 94.9369 26.4399C94.64 26.4399 94.392 26.3559 94.1927 26.1879C93.9975 26.0159 93.8999 25.8199 93.8999 25.5999C93.8999 25.1119 94.1846 24.8219 94.7539 24.7299L95.8824 24.5499C95.8824 24.3379 95.8133 24.1659 95.675 24.0339C95.5408 23.8979 95.3659 23.8299 95.1504 23.8299C94.9389 23.8299 94.7376 23.8999 94.5465 24.0399C94.457 24.1159 94.3838 24.1859 94.3269 24.2499L94.0524 23.9799C94.1297 23.8799 94.2252 23.7899 94.3391 23.7099C94.5872 23.5299 94.8576 23.4399 95.1504 23.4399C95.4839 23.4399 95.7604 23.5459 95.98 23.7579C96.1996 23.9699 96.3094 24.2339 96.3094 24.5499V26.3799H95.8824ZM95.8824 25.0899V24.9099L94.8759 25.0899C94.5099 25.1539 94.3269 25.3239 94.3269 25.5999C94.3269 25.7279 94.3798 25.8359 94.4855 25.9239C94.5953 26.0079 94.7458 26.0499 94.9369 26.0499C95.2175 26.0499 95.4452 25.9619 95.6201 25.7859C95.795 25.6099 95.8824 25.3779 95.8824 25.0899Z" fill="white"/>
<path d="M96.9473 25.9299L97.2218 25.6599C97.2868 25.7399 97.36 25.8059 97.4414 25.8579C97.6284 25.9859 97.8297 26.0499 98.0453 26.0499C98.2771 26.0499 98.4519 26.0059 98.5699 25.9179C98.6878 25.8299 98.7468 25.7139 98.7468 25.5699C98.7468 25.4259 98.6878 25.3099 98.5699 25.2219C98.4519 25.1339 98.2771 25.0899 98.0453 25.0899H97.7098V24.6999H98.0453C98.2201 24.6999 98.3604 24.6559 98.4662 24.5679C98.5719 24.4799 98.6248 24.3739 98.6248 24.2499C98.6248 24.1259 98.576 24.0259 98.4784 23.9499C98.3808 23.8699 98.2364 23.8299 98.0453 23.8299C97.846 23.8299 97.6671 23.8859 97.5085 23.9979C97.4312 24.0499 97.3661 24.1039 97.3133 24.1599L97.0083 23.8599C97.0693 23.7959 97.1587 23.7259 97.2767 23.6499C97.5207 23.5099 97.7769 23.4399 98.0453 23.4399C98.3381 23.4399 98.578 23.5219 98.7651 23.6859C98.9562 23.8459 99.0518 24.0339 99.0518 24.2499C99.0518 24.4699 98.9745 24.6399 98.82 24.7599C98.7508 24.8159 98.6756 24.8559 98.5943 24.8799C98.6959 24.9039 98.7915 24.9439 98.881 24.9999C99.0762 25.1279 99.1738 25.3179 99.1738 25.5699C99.1738 25.8099 99.0741 26.0159 98.8749 26.1879C98.6797 26.3559 98.4031 26.4399 98.0453 26.4399C97.7484 26.4399 97.4739 26.3559 97.2218 26.1879C97.116 26.1119 97.0245 26.0259 96.9473 25.9299Z" fill="white"/>
<path d="M99.9692 27.6399V23.4999H100.396V23.9199C100.465 23.8279 100.549 23.7479 100.646 23.6799C100.866 23.5199 101.118 23.4399 101.403 23.4399C101.805 23.4399 102.145 23.5819 102.421 23.8659C102.698 24.1499 102.836 24.5079 102.836 24.9399C102.836 25.3719 102.698 25.7299 102.421 26.0139C102.145 26.2979 101.805 26.4399 101.403 26.4399C101.118 26.4399 100.866 26.3599 100.646 26.1999C100.549 26.1319 100.465 26.0519 100.396 25.9599V27.6399H99.9692ZM101.403 26.0499C101.683 26.0499 101.921 25.9459 102.116 25.7379C102.312 25.5299 102.409 25.2639 102.409 24.9399C102.409 24.6159 102.312 24.3499 102.116 24.1419C101.921 23.9339 101.683 23.8299 101.403 23.8299C101.138 23.8299 100.905 23.9379 100.701 24.1539C100.498 24.3699 100.396 24.6319 100.396 24.9399C100.396 25.2479 100.498 25.5099 100.701 25.7259C100.905 25.9419 101.138 26.0499 101.403 26.0499Z" fill="white"/>
<path d="M105.366 26.3799V25.9899C105.305 26.0739 105.228 26.1499 105.134 26.2179C104.919 26.3659 104.681 26.4399 104.421 26.4399C104.124 26.4399 103.876 26.3559 103.677 26.1879C103.481 26.0159 103.384 25.8199 103.384 25.5999C103.384 25.1119 103.668 24.8219 104.238 24.7299L105.366 24.5499C105.366 24.3379 105.297 24.1659 105.159 24.0339C105.025 23.8979 104.85 23.8299 104.634 23.8299C104.423 23.8299 104.222 23.8999 104.03 24.0399C103.941 24.1159 103.868 24.1859 103.811 24.2499L103.536 23.9799C103.614 23.8799 103.709 23.7899 103.823 23.7099C104.071 23.5299 104.341 23.4399 104.634 23.4399C104.968 23.4399 105.244 23.5459 105.464 23.7579C105.683 23.9699 105.793 24.2339 105.793 24.5499V26.3799H105.366ZM105.366 25.0899V24.9099L104.36 25.0899C103.994 25.1539 103.811 25.3239 103.811 25.5999C103.811 25.7279 103.864 25.8359 103.969 25.9239C104.079 26.0079 104.23 26.0499 104.421 26.0499C104.701 26.0499 104.929 25.9619 105.104 25.7859C105.279 25.6099 105.366 25.3779 105.366 25.0899Z" fill="white"/>
<path d="M109.145 22L109.359 22.33C109.306 22.374 109.227 22.416 109.121 22.456C108.889 22.556 108.582 22.644 108.2 22.72C107.874 22.788 107.614 22.94 107.419 23.176C107.224 23.408 107.118 23.726 107.102 24.13C107.171 24.022 107.256 23.928 107.358 23.848C107.586 23.656 107.846 23.56 108.139 23.56C108.521 23.56 108.85 23.7 109.127 23.98C109.404 24.26 109.542 24.6 109.542 25C109.542 25.404 109.401 25.746 109.121 26.026C108.844 26.302 108.507 26.44 108.108 26.44C107.677 26.44 107.325 26.278 107.053 25.954C106.781 25.63 106.644 25.172 106.644 24.58C106.644 23.884 106.778 23.354 107.047 22.99C107.315 22.626 107.679 22.406 108.139 22.33C108.444 22.274 108.702 22.204 108.913 22.12C109.027 22.068 109.105 22.028 109.145 22ZM107.395 25.75C107.59 25.95 107.828 26.05 108.108 26.05C108.389 26.05 108.627 25.95 108.822 25.75C109.017 25.546 109.115 25.296 109.115 25C109.115 24.704 109.017 24.456 108.822 24.256C108.627 24.052 108.389 23.95 108.108 23.95C107.828 23.95 107.59 24.052 107.395 24.256C107.199 24.456 107.102 24.704 107.102 25C107.102 25.296 107.199 25.546 107.395 25.75Z" fill="white"/>
<path d="M112.671 26.0079C112.382 26.2959 112.031 26.4399 111.616 26.4399C111.201 26.4399 110.847 26.2959 110.554 26.0079C110.266 25.7159 110.121 25.3599 110.121 24.9399C110.121 24.5199 110.266 24.1659 110.554 23.8779C110.847 23.5859 111.201 23.4399 111.616 23.4399C112.031 23.4399 112.382 23.5859 112.671 23.8779C112.964 24.1659 113.11 24.5199 113.11 24.9399C113.11 25.3599 112.964 25.7159 112.671 26.0079ZM110.859 25.7259C111.071 25.9419 111.323 26.0499 111.616 26.0499C111.909 26.0499 112.159 25.9439 112.366 25.7319C112.578 25.5159 112.683 25.2519 112.683 24.9399C112.683 24.6279 112.578 24.3659 112.366 24.1539C112.159 23.9379 111.909 23.8299 111.616 23.8299C111.323 23.8299 111.071 23.9379 110.859 24.1539C110.652 24.3659 110.548 24.6279 110.548 24.9399C110.548 25.2479 110.652 25.5099 110.859 25.7259Z" fill="white"/>
<path d="M114.484 26.38V23.89H113.447V23.5H115.948V23.89H114.911V26.38H114.484Z" fill="white"/>
<path d="M116.56 26.38V23.5H116.987V25.03L118.451 23.5H118.969L117.841 24.67L119.091 26.38H118.603L117.566 24.97L116.987 25.57V26.38H116.56Z" fill="white"/>
<path d="M121.349 26.3799V25.9899C121.288 26.0739 121.21 26.1499 121.117 26.2179C120.901 26.3659 120.663 26.4399 120.403 26.4399C120.106 26.4399 119.858 26.3559 119.659 26.1879C119.464 26.0159 119.366 25.8199 119.366 25.5999C119.366 25.1119 119.651 24.8219 120.22 24.7299L121.349 24.5499C121.349 24.3379 121.28 24.1659 121.141 24.0339C121.007 23.8979 120.832 23.8299 120.617 23.8299C120.405 23.8299 120.204 23.8999 120.013 24.0399C119.923 24.1159 119.85 24.1859 119.793 24.2499L119.519 23.9799C119.596 23.8799 119.692 23.7899 119.805 23.7099C120.053 23.5299 120.324 23.4399 120.617 23.4399C120.95 23.4399 121.227 23.5459 121.446 23.7579C121.666 23.9699 121.776 24.2339 121.776 24.5499V26.3799H121.349ZM121.349 25.0899V24.9099L120.342 25.0899C119.976 25.1539 119.793 25.3239 119.793 25.5999C119.793 25.7279 119.846 25.8359 119.952 25.9239C120.062 26.0079 120.212 26.0499 120.403 26.0499C120.684 26.0499 120.912 25.9619 121.086 25.7859C121.261 25.6099 121.349 25.3779 121.349 25.0899Z" fill="white"/>
<path d="M41.175 26.3802V22.1802H41.5715L43.3405 24.4602L45.1095 22.1802H45.506V26.3802H45.0486V22.9602L43.3405 25.1802L41.6325 22.9602V26.3802H41.175Z" fill="white"/>
<path d="M48.8302 25.5699L49.1047 25.8399C49.0274 25.9439 48.9237 26.0439 48.7936 26.1399C48.5089 26.3399 48.2059 26.4399 47.8847 26.4399C47.4821 26.4399 47.1364 26.2939 46.8477 26.0019C46.563 25.7099 46.4207 25.3559 46.4207 24.9399C46.4207 24.5239 46.563 24.1699 46.8477 23.8779C47.1323 23.5859 47.4678 23.4399 47.8542 23.4399C48.2568 23.4399 48.5902 23.5759 48.8546 23.8479C49.123 24.1199 49.2572 24.4639 49.2572 24.8799C49.2572 24.8999 49.2511 24.9519 49.2389 25.0359L49.2267 25.0959L46.8477 25.0899C46.8639 25.3499 46.9717 25.5759 47.171 25.7679C47.3743 25.9559 47.6122 26.0499 47.8847 26.0499C48.1327 26.0499 48.3666 25.9699 48.5862 25.8099C48.6919 25.7259 48.7732 25.6459 48.8302 25.5699ZM46.8477 24.7299H48.8302C48.7976 24.4699 48.6899 24.2559 48.5069 24.0879C48.3279 23.9159 48.1104 23.8299 47.8542 23.8299C47.598 23.8299 47.3743 23.9179 47.1832 24.0939C46.992 24.2699 46.8802 24.4819 46.8477 24.7299Z" fill="white"/>
<path d="M50.0176 27.6399V23.4999H50.4446V23.9199C50.5137 23.8279 50.5971 23.7479 50.6947 23.6799C50.9141 23.5199 51.1663 23.4399 51.4509 23.4399C51.8535 23.4399 52.1931 23.5819 52.4696 23.8659C52.7462 24.1499 52.8844 24.5079 52.8844 24.9399C52.8844 25.3719 52.7462 25.7299 52.4696 26.0139C52.1931 26.2979 51.8535 26.4399 51.4509 26.4399C51.1663 26.4399 50.9141 26.3599 50.6947 26.1999C50.5971 26.1319 50.5137 26.0519 50.4446 25.9599V27.6399H50.0176ZM51.4509 26.0499C51.7315 26.0499 51.9694 25.9459 52.1646 25.7379C52.3598 25.5299 52.4574 25.2639 52.4574 24.9399C52.4574 24.6159 52.3598 24.3499 52.1646 24.1419C51.9694 23.9339 51.7315 23.8299 51.4509 23.8299C51.1866 23.8299 50.9528 23.9379 50.7496 24.1539C50.5462 24.3699 50.4446 24.6319 50.4446 24.9399C50.4446 25.2479 50.5462 25.5099 50.7496 25.7259C50.9528 25.9419 51.1866 26.0499 51.4509 26.0499Z" fill="white"/>
<path d="M55.9817 26.0079C55.693 26.2959 55.3412 26.4399 54.9264 26.4399C54.5116 26.4399 54.1578 26.2959 53.865 26.0079C53.5763 25.7159 53.4319 25.3599 53.4319 24.9399C53.4319 24.5199 53.5763 24.1659 53.865 23.8779C54.1578 23.5859 54.5116 23.4399 54.9264 23.4399C55.3412 23.4399 55.693 23.5859 55.9817 23.8779C56.2745 24.1659 56.4209 24.5199 56.4209 24.9399C56.4209 25.3599 56.2745 25.7159 55.9817 26.0079ZM54.17 25.7259C54.3815 25.9419 54.6336 26.0499 54.9264 26.0499C55.2192 26.0499 55.4693 25.9439 55.6767 25.7319C55.8882 25.5159 55.9939 25.2519 55.9939 24.9399C55.9939 24.6279 55.8882 24.3659 55.6767 24.1539C55.4693 23.9379 55.2192 23.8299 54.9264 23.8299C54.6336 23.8299 54.3815 23.9379 54.17 24.1539C53.9626 24.3659 53.8589 24.6279 53.8589 24.9399C53.8589 25.2479 53.9626 25.5099 54.17 25.7259Z" fill="white"/>
<path d="M57.1838 26.38V23.5H59.7153V26.38H59.2883V23.896H57.6108V26.38H57.1838Z" fill="white"/>
<path d="M60.6924 27.6399V23.4999H61.1194V23.9199C61.1885 23.8279 61.2719 23.7479 61.3695 23.6799C61.5891 23.5199 61.8412 23.4399 62.1259 23.4399C62.5285 23.4399 62.8681 23.5819 63.1446 23.8659C63.4211 24.1499 63.5594 24.5079 63.5594 24.9399C63.5594 25.3719 63.4211 25.7299 63.1446 26.0139C62.8681 26.2979 62.5285 26.4399 62.1259 26.4399C61.8412 26.4399 61.5891 26.3599 61.3695 26.1999C61.2719 26.1319 61.1885 26.0519 61.1194 25.9599V27.6399H60.6924ZM62.1259 26.0499C62.4065 26.0499 62.6444 25.9459 62.8396 25.7379C63.0348 25.5299 63.1324 25.2639 63.1324 24.9399C63.1324 24.6159 63.0348 24.3499 62.8396 24.1419C62.6444 23.9339 62.4065 23.8299 62.1259 23.8299C61.8615 23.8299 61.6277 23.9379 61.4244 24.1539C61.2211 24.3699 61.1194 24.6319 61.1194 24.9399C61.1194 25.2479 61.2211 25.5099 61.4244 25.7259C61.6277 25.9419 61.8615 26.0499 62.1259 26.0499Z" fill="white"/>
<path d="M64.3203 26.38V23.5H64.7473V25.66L66.5163 23.5H66.8823V26.38H66.4553V24.22L64.6863 26.38H64.3203Z" fill="white"/>
<path d="M67.615 26.38L68.286 25.33C68.1762 25.298 68.0745 25.244 67.981 25.168C67.7777 25 67.676 24.764 67.676 24.46C67.676 24.184 67.7736 23.956 67.9688 23.776C68.1681 23.592 68.4263 23.5 68.7435 23.5H69.994V26.38H69.567V25.42H68.713L68.103 26.38H67.615ZM68.7435 25.03H69.567V23.89H68.7435C68.5483 23.89 68.3917 23.942 68.2738 24.046C68.1599 24.15 68.103 24.288 68.103 24.46C68.103 24.632 68.1599 24.77 68.2738 24.874C68.3917 24.978 68.5483 25.03 68.7435 25.03Z" fill="white"/>
<path d="M71.6395 26.38V23.89H70.6025V23.5H73.1035V23.89H72.0665V26.38H71.6395Z" fill="white"/>
<path d="M73.7144 26.38V23.5H74.1419V25.66L75.9104 23.5H76.2764V26.38H75.8499V24.22L74.0804 26.38H73.7144Z" fill="white"/>
<path d="M77.009 26.38L77.68 25.33C77.5702 25.298 77.4686 25.244 77.375 25.168C77.1717 25 77.07 24.764 77.07 24.46C77.07 24.184 77.1676 23.956 77.3628 23.776C77.5621 23.592 77.8203 23.5 78.1375 23.5H79.388V26.38H78.961V25.42H78.107L77.497 26.38H77.009ZM78.1375 25.03H78.961V23.89H78.1375C77.9423 23.89 77.7858 23.942 77.6678 24.046C77.554 24.15 77.497 24.288 77.497 24.46C77.497 24.632 77.554 24.77 77.6678 24.874C77.7858 24.978 77.9423 25.03 78.1375 25.03Z" fill="white"/>
<path d="M0 26.3802V22.1802H0.3965L2.1655 24.4602L3.9345 22.1802H4.331V26.3802H3.8735V22.9602L2.1655 25.1802L0.4575 22.9602V26.3802H0Z" fill="white"/>
<path d="M7.22811 26.3799V25.9899C7.16711 26.0739 7.08984 26.1499 6.99631 26.2179C6.78077 26.3659 6.54287 26.4399 6.28261 26.4399C5.98574 26.4399 5.73767 26.3559 5.53841 26.1879C5.34321 26.0159 5.24561 25.8199 5.24561 25.5999C5.24561 25.1119 5.53027 24.8219 6.09961 24.7299L7.22811 24.5499C7.22811 24.3379 7.15897 24.1659 7.02071 24.0339C6.88651 23.8979 6.71164 23.8299 6.49611 23.8299C6.28464 23.8299 6.08334 23.8999 5.89221 24.0399C5.80274 24.1159 5.72954 24.1859 5.67261 24.2499L5.39811 23.9799C5.47537 23.8799 5.57094 23.7899 5.68481 23.7099C5.93287 23.5299 6.20331 23.4399 6.49611 23.4399C6.82957 23.4399 7.10611 23.5459 7.32571 23.7579C7.54531 23.9699 7.65511 24.2339 7.65511 24.5499V26.3799H7.22811ZM7.22811 25.0899V24.9099L6.22161 25.0899C5.85561 25.1539 5.67261 25.3239 5.67261 25.5999C5.67261 25.7279 5.72547 25.8359 5.83121 25.9239C5.94101 26.0079 6.09147 26.0499 6.28261 26.0499C6.56321 26.0499 6.79094 25.9619 6.96581 25.7859C7.14067 25.6099 7.22811 25.3779 7.22811 25.0899Z" fill="white"/>
<path d="M8.62817 27.6399V23.4999H9.05517V23.9199C9.12431 23.8279 9.20767 23.7479 9.30527 23.6799C9.52487 23.5199 9.77701 23.4399 10.0617 23.4399C10.4643 23.4399 10.8038 23.5819 11.0804 23.8659C11.3569 24.1499 11.4952 24.5079 11.4952 24.9399C11.4952 25.3719 11.3569 25.7299 11.0804 26.0139C10.8038 26.2979 10.4643 26.4399 10.0617 26.4399C9.77701 26.4399 9.52487 26.3599 9.30527 26.1999C9.20767 26.1319 9.12431 26.0519 9.05517 25.9599V27.6399H8.62817ZM10.0617 26.0499C10.3423 26.0499 10.5802 25.9459 10.7754 25.7379C10.9706 25.5299 11.0682 25.2639 11.0682 24.9399C11.0682 24.6159 10.9706 24.3499 10.7754 24.1419C10.5802 23.9339 10.3423 23.8299 10.0617 23.8299C9.79734 23.8299 9.56351 23.9379 9.36017 24.1539C9.15684 24.3699 9.05517 24.6319 9.05517 24.9399C9.05517 25.2479 9.15684 25.5099 9.36017 25.7259C9.56351 25.9419 9.79734 26.0499 10.0617 26.0499Z" fill="white"/>
<path d="M12.2561 26.38V23.5H12.6831V25.03L14.1471 23.5H14.6656L13.5371 24.67L14.7876 26.38H14.2996L13.2626 24.97L12.6831 25.57V26.38H12.2561Z" fill="white"/>
<path d="M17.4722 25.5699L17.7467 25.8399C17.6695 25.9439 17.5658 26.0439 17.4356 26.1399C17.151 26.3399 16.848 26.4399 16.5267 26.4399C16.1241 26.4399 15.7785 26.2939 15.4897 26.0019C15.2051 25.7099 15.0627 25.3559 15.0627 24.9399C15.0627 24.5239 15.2051 24.1699 15.4897 23.8779C15.7744 23.5859 16.1099 23.4399 16.4962 23.4399C16.8988 23.4399 17.2323 23.5759 17.4966 23.8479C17.765 24.1199 17.8992 24.4639 17.8992 24.8799C17.8992 24.8999 17.8931 24.9519 17.8809 25.0359L17.8687 25.0959L15.4897 25.0899C15.506 25.3499 15.6138 25.5759 15.813 25.7679C16.0164 25.9559 16.2543 26.0499 16.5267 26.0499C16.7748 26.0499 17.0086 25.9699 17.2282 25.8099C17.334 25.7259 17.4153 25.6459 17.4722 25.5699ZM15.4897 24.7299H17.4722C17.4397 24.4699 17.3319 24.2559 17.1489 24.0879C16.97 23.9159 16.7524 23.8299 16.4962 23.8299C16.24 23.8299 16.0164 23.9179 15.8252 24.0939C15.6341 24.2699 15.5223 24.4819 15.4897 24.7299Z" fill="white"/>
<path d="M19.2711 26.38V23.89H18.2341V23.5H20.7351V23.89H19.6981V26.38H19.2711Z" fill="white"/>
<path d="M21.3464 26.38V23.5H21.7734V25.66L23.5424 23.5H23.9084V26.38H23.4814V24.22L21.7124 26.38H21.3464Z" fill="white"/>
<path d="M24.885 26.38V23.5H25.312V24.73H26.9895V23.5H27.4165V26.38H26.9895V25.12H25.312V26.38H24.885Z" fill="white"/>
<path d="M28.3936 26.38V23.5H30.3456V23.89H28.8206V26.38H28.3936Z" fill="white"/>
<path d="M107.462 0.200195H111.756C114.993 0.200195 117.449 0.912196 119.125 2.3362C120.8 3.7602 121.638 5.8482 121.638 8.6002C121.638 11.3522 120.8 13.4402 119.125 14.8642C117.449 16.2882 114.993 17.0002 111.756 17.0002H107.462C104.225 17.0002 101.768 16.2882 100.093 14.8642C98.4173 13.4402 97.5796 11.3522 97.5796 8.6002C97.5796 5.8482 98.4173 3.7602 100.093 2.3362C101.768 0.912196 104.225 0.200195 107.462 0.200195ZM116.368 12.8242C117.49 11.9602 118.051 10.5522 118.051 8.6002C118.051 6.6482 117.49 5.2402 116.368 4.3762C115.245 3.5122 113.407 3.0802 110.853 3.0802H108.364C105.811 3.0802 103.972 3.5122 102.85 4.3762C101.728 5.2402 101.166 6.6482 101.166 8.6002C101.166 10.5522 101.728 11.9602 102.85 12.8242C103.972 13.6882 105.811 14.1202 108.364 14.1202H110.853C113.407 14.1202 115.245 13.6882 116.368 12.8242Z" fill="white"/>
<path d="M85.8474 17.0002H82.3094V3.0802H72.6714V0.200195H95.4854V3.0802H85.8474V17.0002Z" fill="white"/>
<mask id="mask1_2051_3681" style="mask-type:alpha" maskUnits="userSpaceOnUse" x="48" y="0" width="24" height="17">
<path d="M48.8 0H71.675V17H63.8772L48.8 8.75V0Z" fill="white"/>
</mask>
<g mask="url(#mask1_2051_3681)">
<path d="M69.9549 0.200195L54.9977 8.6002L69.9549 17.0002H63.8793L53.1921 11.1682V17.0002H49.6541V0.200195H53.1921V6.0322L63.8793 0.200195H69.9549Z" fill="white"/>
</g>
<path d="M25.1523 17.0002H28.5439L42.5007 4.6402V17.0002H46.0387V0.200195H42.6471L28.6903 12.4882V0.200195H25.1523V17.0002Z" fill="white"/>
<path d="M3.55835 6.75V10.25H17.7917V6.75H3.55835Z" fill="white"/>
<path d="M3.55833 0.197754L0 0.197758V17H3.55833V0.197754Z" fill="white"/>
<path d="M21.3501 0.197754L17.7917 0.197758V17H21.3501V0.197754Z" fill="white"/>
</g>
</svg>
