<svg width="87" height="18" viewBox="0 0 87 18" fill="none" xmlns="http://www.w3.org/2000/svg">
<mask id="mask0_2051_3952" style="mask-type:luminance" maskUnits="userSpaceOnUse" x="0" y="0" width="87" height="19">
<path d="M87 0H0V18.034H87V0Z" fill="white"/>
</mask>
<g mask="url(#mask0_2051_3952)">
<path d="M8.81091 5.84272C8.4492 5.84272 8.15381 5.56581 8.15381 5.22791V0.57671C8.15381 0.238815 8.4492 -0.0380859 8.81091 -0.0380859H11.6799C12.0417 -0.0380859 12.337 0.238815 12.337 0.57671V5.2267C12.337 5.56459 12.0417 5.84148 11.6799 5.84148H8.81091V5.84272Z" fill="#E2241C"/>
<path d="M6.16447 9.59968C6.0526 9.92175 5.68046 10.0998 5.33695 9.9949L0.618979 8.55799C0.275474 8.45305 0.0868069 8.10421 0.197404 7.78214L1.08349 5.22417C1.19539 4.90214 1.56752 4.72404 1.91102 4.82895L6.62902 6.26587C6.97251 6.37081 7.16247 6.71965 7.0506 7.04173L6.16447 9.59968Z" fill="#E2241C"/>
<path d="M14.3265 9.59968C14.4385 9.92175 14.8106 10.0998 15.1541 9.9949L19.8721 8.55799C20.2156 8.45305 20.4042 8.10421 20.2937 7.78214L19.4076 5.22417C19.2957 4.90214 18.9235 4.72404 18.5814 4.82895L13.8634 6.26587C13.5199 6.37081 13.3299 6.71965 13.4418 7.04173L14.3265 9.59968Z" fill="#E2241C"/>
<path d="M9.15703 13.12C9.44979 13.3188 9.51483 13.7068 9.30275 13.98L6.3869 17.7419C6.17476 18.0152 5.76232 18.0774 5.46956 17.8773L3.14831 16.2964C2.85555 16.0976 2.79049 15.7109 3.00258 15.4377L5.91846 11.6757C6.13052 11.4025 6.54301 11.3403 6.83576 11.5403L9.15703 13.12Z" fill="#E2241C"/>
<path d="M11.3326 13.1202C11.0399 13.319 10.9748 13.7069 11.1869 13.9802L14.1028 17.7421C14.3149 18.0154 14.7273 18.0776 15.0201 17.8776L17.3414 16.2979C17.6328 16.099 17.6991 15.7124 17.4871 15.4391L14.5712 11.6772C14.3591 11.4039 13.9466 11.3417 13.6539 11.5418L11.3326 13.1202Z" fill="#E2241C"/>
<path d="M83.3746 2.8186H86.2961C86.6808 2.8186 86.8906 3.24067 86.6417 3.51635L81.9956 8.69207C81.8537 8.85065 81.8537 9.0812 81.9956 9.23979L86.685 14.4448C86.9333 14.7205 86.7241 15.1438 86.3387 15.1438H83.4124C83.276 15.1438 83.1485 15.0865 83.0614 14.9876L78.0503 9.23855C77.9139 9.08244 77.9139 8.85798 78.0503 8.70182L83.0235 2.97718C83.1095 2.87716 83.2381 2.8186 83.3746 2.8186Z" fill="#E2241C"/>
<path d="M74.0523 15.1425H76.3913C76.6402 15.1425 76.8416 14.9534 76.8416 14.7205V3.237C76.8416 3.00402 76.6402 2.81494 76.3913 2.81494H74.0523C73.8034 2.81494 73.6021 3.00402 73.6021 3.237V14.7205C73.6021 14.9534 73.8034 15.1425 74.0523 15.1425Z" fill="#E2241C"/>
<path d="M37.184 15.1425H34.8172C34.5687 15.1425 34.367 14.9534 34.367 14.7205V10.9415C34.367 10.7085 34.1654 10.5194 33.9169 10.5194H29.4604C29.2119 10.5194 29.0102 10.7085 29.0102 10.9415V14.7205C29.0102 14.9534 28.8085 15.1425 28.56 15.1425H26.1919C25.9434 15.1425 25.7417 14.9534 25.7417 14.7205V3.237C25.7417 3.00402 25.9434 2.81494 26.1919 2.81494H28.56C28.8085 2.81494 29.0102 3.00402 29.0102 3.237V7.34171C29.0102 7.57469 29.2119 7.76376 29.4604 7.76376H33.9169C34.1654 7.76376 34.367 7.57469 34.367 7.34171V3.237C34.367 3.00402 34.5687 2.81494 34.8172 2.81494H37.184C37.4326 2.81494 37.6342 3.00402 37.6342 3.237V14.7205C37.6342 14.9534 37.4326 15.1425 37.184 15.1425Z" fill="#E2241C"/>
<path d="M41.4023 8.97853C41.4023 5.14585 44.4991 2.55859 48.5664 2.55859C51.5032 2.55859 53.183 3.98945 54.1133 5.49107C54.2447 5.7021 54.1484 5.97413 53.9129 6.07901L51.7998 7.01587C51.5916 7.10858 51.3405 7.03779 51.2234 6.85238C50.7003 6.02412 49.688 5.38616 48.5664 5.38616C46.4027 5.38616 44.8751 6.94875 44.8751 8.97735C44.8751 11.0059 46.4039 12.5685 48.5664 12.5685C49.688 12.5685 50.7017 11.9305 51.2234 11.1023C51.3405 10.9157 51.5916 10.8461 51.7998 10.9388L53.9129 11.8756C54.1484 11.9806 54.2447 12.2526 54.1133 12.4636C53.1947 13.9396 51.4993 15.3961 48.5664 15.3961C44.4991 15.3973 41.4023 12.7929 41.4023 8.97853Z" fill="#E2241C"/>
<path d="M69.3082 15.1425H66.9397C66.6915 15.1425 66.4901 14.9534 66.4901 14.7205V5.9926C66.4901 5.75963 66.2881 5.57053 66.0398 5.57053H61.583C61.3348 5.57053 61.1328 5.75963 61.1328 5.9926V14.7192C61.1328 14.9523 60.9314 15.1413 60.6825 15.1413H58.3147C58.0662 15.1413 57.8645 14.9523 57.8645 14.7192V3.237C57.8645 3.00402 58.0662 2.81494 58.3147 2.81494H61.1328H66.4901H69.307C69.5553 2.81494 69.7572 3.00402 69.7572 3.237V14.7205C69.7584 14.9534 69.5565 15.1425 69.3082 15.1425Z" fill="#E2241C"/>
</g>
</svg>
