<svg width="114" height="22" viewBox="0 0 114 22" fill="none" xmlns="http://www.w3.org/2000/svg">
<path d="M11.0659 0C4.94653 0 0 4.91705 0 11C0 17.0829 4.94653 22 11.0659 22C17.1854 22 22.1319 17.0829 22.1319 11C22.1319 4.91705 17.1854 0 11.0659 0ZM9.53609 15.6636L8.72017 18.0461C5.66046 17.0323 3.62065 14.1429 3.62065 10.8986C3.62065 7.65438 5.66046 4.81567 8.77116 3.75115L9.58708 6.13364C7.54728 6.79263 6.22141 8.71889 6.22141 10.8479C6.11942 13.0783 7.49628 15.0046 9.53609 15.6636ZM13.3097 18.0968L12.5448 15.6636C14.6356 15.0046 16.0125 13.0783 16.0125 10.8986C16.0125 8.71889 14.6356 6.84332 12.5958 6.18433L13.4117 3.75115C16.5224 4.76498 18.6132 7.65438 18.6132 10.8986C18.6132 14.2442 16.4714 17.1336 13.3097 18.0968Z" fill="#00BEF0"/>
<path d="M112.393 12.9767L113.617 14.4467C112.342 15.7647 110.761 16.1195 109.487 16.1195C108.263 16.1195 107.396 15.9167 106.631 15.5619C104.999 14.7508 104.183 13.1287 104.183 11.1518C104.183 8.16099 106.223 5.93057 109.232 5.93057C112.597 5.93057 114.229 8.41444 113.974 11.6587H106.325C106.376 12.4697 106.835 13.2301 107.498 13.6356C108.059 13.9905 108.722 14.1426 109.589 14.1426C110.557 14.1426 111.526 13.8384 112.393 12.9767ZM106.376 9.88449H111.781C111.628 8.71859 110.659 7.70477 109.13 7.70477C107.549 7.70477 106.58 8.81997 106.376 9.88449ZM55.0238 15.8154H57.7775L53.4429 10.7969L57.7265 6.08265H55.0238L51.7601 9.8338H50.7912V6.08265H48.7004V15.7647H50.7912V11.9121H51.7601L55.0238 15.8154ZM63.9989 7.85684C62.2141 7.85684 61.0412 9.2255 61.0412 10.949C61.0412 12.6725 62.2141 14.0412 63.9989 14.0412C65.7837 14.0412 66.9056 12.7232 66.9056 10.949C66.9566 9.2762 65.8347 7.85684 63.9989 7.85684ZM64.3559 5.87988C67.1096 5.87988 69.1494 8.00891 69.1494 10.949C69.1494 13.8384 67.1606 16.0688 64.3559 16.0688C63.03 16.0688 61.9591 15.6126 61.1942 14.8015V19.8707H59.0524V6.13334H61.1432V7.29924C61.9591 6.3361 63.03 5.87988 64.3559 5.87988ZM92.1482 6.13334H83.4281V8.05961H86.7427V15.8154H88.8845V8.05961H92.1992V6.13334H92.1482ZM47.2215 6.13334H38.4503V8.05961H41.765V15.8154H43.9068V8.05961H47.2215V6.13334ZM35.9006 10.9997C35.9006 9.17481 34.6257 7.85684 32.8409 7.85684C31.107 7.85684 29.7812 9.17481 29.7812 10.9997C29.7812 12.8246 31.056 14.1426 32.8409 14.1426C34.5747 14.1426 35.9006 12.8246 35.9006 10.9997ZM27.5884 10.9997C27.5884 8.1103 29.8322 5.93057 32.8409 5.93057C35.7986 5.93057 38.0934 8.1103 38.0934 10.9997C38.0934 13.8891 35.8496 16.1195 32.8409 16.1195C29.8832 16.0688 27.5884 13.8891 27.5884 10.9997ZM102.5 6.13334V15.8154H100.409V9.58034L95.3099 15.8154H93.6271V6.13334H95.7179V12.3684L100.817 6.13334H102.5ZM81.9492 15.8154H79.8584V6.13334H81.9492V15.8154ZM76.5437 12.5204C76.5437 11.6587 75.9318 11.0504 75.1158 11.0504H72.974V14.0412H75.1158C75.9318 14.0412 76.5437 13.3822 76.5437 12.5204ZM78.6345 12.5204C78.6345 14.4467 77.2066 15.8154 75.1668 15.8154H70.8832V6.13334H72.974V9.2762H75.3708C77.4106 9.2762 78.6345 10.5942 78.6345 12.5204Z" fill="black"/>
</svg>
