<svg width="128" height="18" viewBox="0 0 128 18" fill="none" xmlns="http://www.w3.org/2000/svg">
<g clip-path="url(#clip0_2051_3916)">
<mask id="mask0_2051_3916" style="mask-type:luminance" maskUnits="userSpaceOnUse" x="0" y="0" width="128" height="18">
<path d="M127.668 0H0V18H127.668V0Z" fill="white"/>
</mask>
<g mask="url(#mask0_2051_3916)">
<path d="M92.8267 0L82.8386 1.26956V4.14542L92.8267 3.27816V0Z" fill="#E40038"/>
<path d="M62.3089 10.4736C62.3089 12.2189 62.8442 12.8228 64.5615 12.8228C66.2789 12.8228 66.8051 12.2159 66.8051 10.4736C66.8051 8.73124 66.287 8.12435 64.5615 8.12435C62.8359 8.12435 62.3089 8.71949 62.3089 10.4736ZM59.2913 10.4481C59.2913 7.25025 61.1176 5.78687 64.5615 5.78687C68.0054 5.78687 69.8399 7.25025 69.8399 10.4481C69.8399 13.646 68.0256 15.1603 64.5615 15.1603C61.0975 15.1603 59.2913 13.646 59.2913 10.4481Z" fill="#00234D"/>
<path d="M90.936 6.59028L82.8387 1.27222V4.14121L85.3633 5.80525L85.8602 6.08716C84.9532 6.09792 84.5187 6.27705 84.0824 6.53352C82.8356 7.26471 82.1885 8.55091 82.1885 10.4489C82.1885 13.6468 84.0028 15.1611 87.4587 15.1611C90.9149 15.1611 92.7382 13.6468 92.7382 10.4489C92.7382 8.59791 92.1213 7.33226 90.936 6.59028ZM87.4587 12.8226C85.7454 12.8226 85.2062 12.2157 85.2062 10.4734C85.2062 8.73102 85.7414 8.12413 87.4587 8.12413C89.1763 8.12413 89.7024 8.71927 89.7024 10.4734C89.7024 12.2275 89.1853 12.8226 87.4587 12.8226Z" fill="#00234D"/>
<path d="M54.0947 5.77515C52.4638 5.77515 51.1385 6.75399 50.8099 7.15924V5.98462H47.9163V18H50.7918V13.7263C51.1294 14.1404 52.4456 15.1016 54.0855 15.1016C56.8068 15.1016 58.3055 13.6647 58.3055 10.4315C58.3055 7.19839 56.8088 5.77515 54.0947 5.77515ZM53.0645 12.7739C51.3512 12.7739 50.812 12.168 50.812 10.4247C50.812 8.68134 51.3472 8.07544 53.0645 8.07544C54.7819 8.07544 55.3071 8.67254 55.3071 10.4247C55.3071 12.1768 54.79 12.77 53.0645 12.77V12.7739Z" fill="#00234D"/>
<path d="M112.525 5.98853V9.25102H108.707V5.98853H105.813V14.8177H108.707V11.5102H112.525V14.8177H115.42V5.98853H112.525Z" fill="#00234D"/>
<path d="M93.7339 10.4315C93.7339 13.6617 95.2307 15.1016 97.9541 15.1016C99.5929 15.1016 100.909 14.1404 101.247 13.7263V14.8187H104.123V5.97874H101.23V7.15336C100.899 6.75399 99.5736 5.77515 97.944 5.77515C95.2296 5.77515 93.7339 7.2072 93.7339 10.4315ZM96.7314 10.4188C96.7314 8.6647 97.2485 8.06956 98.975 8.06956C100.702 8.06956 101.227 8.66666 101.227 10.4188C101.227 12.1709 100.691 12.768 98.975 12.768C97.2586 12.768 96.7303 12.1641 96.7303 10.4188H96.7314Z" fill="#00234D"/>
<path d="M78.2367 11.5554C78.0108 12.4785 77.4062 12.823 76.0958 12.823C74.3825 12.823 73.8442 12.2162 73.8442 10.4738C73.8442 8.73147 74.3825 8.12458 76.0958 8.12458C77.4062 8.12458 78.0108 8.46817 78.2376 9.39709L81.2553 9.17489C80.8047 6.86481 79.0379 5.79102 76.0958 5.79102C72.6519 5.79102 70.8267 7.2544 70.8267 10.4523C70.8267 13.6502 72.6407 15.1645 76.0958 15.1645C79.0358 15.1645 80.7845 14.0681 81.2461 11.7806L78.2367 11.5554Z" fill="#00234D"/>
<path d="M127.668 14.8167L123.088 10.1809L127.422 5.98853H123.842L119.958 9.82365V5.98853H117.116V14.8167H119.958V11.7295V10.965V10.7516L123.948 14.8167H127.668Z" fill="#00234D"/>
<path d="M7.9624 5.95435H8.52381V7.22686H10.2886V5.95435H10.85V8.96332H10.2886V7.70355H8.52079V8.96332H7.9624V5.95435Z" fill="#E40038"/>
<path d="M14.816 5.95429V8.96326H14.2778V8.48657C14.1559 8.65058 13.9928 8.78164 13.8041 8.86735C13.6064 8.95576 13.3909 9.00024 13.1732 8.99752C12.8915 9.00078 12.6138 8.93334 12.3669 8.80176C12.132 8.67546 11.9385 8.48755 11.8085 8.25948C11.6761 8.01165 11.6069 7.73652 11.6069 7.4573C11.6069 7.17809 11.6761 6.90298 11.8085 6.65515C11.9395 6.42854 12.1328 6.24181 12.3669 6.11581C12.6138 5.98421 12.8915 5.91679 13.1732 5.92003C13.3844 5.91809 13.5936 5.95979 13.787 6.04238C13.9716 6.12227 14.1325 6.24617 14.2547 6.40261V5.95429H14.816ZM13.7467 8.38771C13.9052 8.2994 14.0348 8.16946 14.1206 8.01281C14.2088 7.84085 14.2546 7.65137 14.2546 7.45927C14.2546 7.26718 14.2088 7.0777 14.1206 6.90574C14.0355 6.74932 13.9056 6.62014 13.7467 6.53376C13.5828 6.44767 13.3994 6.40258 13.213 6.40258C13.0266 6.40258 12.8432 6.44767 12.6793 6.53376C12.5212 6.62123 12.3916 6.75012 12.3054 6.90574C12.2153 7.07713 12.1684 7.26683 12.1684 7.45927C12.1684 7.6517 12.2153 7.8414 12.3054 8.01281C12.3924 8.16863 12.5217 8.2983 12.6793 8.38771C12.8429 8.47493 13.0264 8.52066 13.213 8.52066C13.3996 8.52066 13.5831 8.47493 13.7467 8.38771Z" fill="#E40038"/>
<path d="M17.2199 6.40257C16.6515 6.40257 16.2453 6.87632 16.2453 7.4646C16.2453 8.0529 16.6484 8.52666 17.226 8.52666C17.8509 8.52666 18.0827 8.13511 18.1331 8.02941H18.6954C18.6582 8.23497 18.3326 9.03664 17.227 9.03664C16.3461 9.03664 15.6587 8.35145 15.6587 7.4646C15.6587 6.57777 16.34 5.89258 17.2209 5.89258C18.3296 5.89258 18.6522 6.67567 18.6954 6.89981H18.121C18.0351 6.74225 17.9047 6.61176 17.745 6.52368C17.5854 6.43559 17.4032 6.39358 17.2199 6.40257Z" fill="#E40038"/>
<path d="M21.8219 6.43104H20.6881V8.96332H20.1267V6.43104H18.9927V5.95435H21.8219V6.43104Z" fill="#E40038"/>
<path d="M22.7171 8.79872C22.4766 8.67142 22.2773 8.48162 22.1415 8.25056C22.0053 8.00758 21.9338 7.73533 21.9338 7.45869C21.9338 7.18202 22.0053 6.90978 22.1415 6.66679C22.2771 6.43638 22.4764 6.24748 22.7171 6.12157C22.9731 5.99293 23.2572 5.92578 23.5455 5.92578C23.8338 5.92578 24.1179 5.99293 24.374 6.12157C24.6132 6.24841 24.8118 6.43712 24.9475 6.66679C25.0828 6.91001 25.1539 7.18216 25.1539 7.45869C25.1539 7.73521 25.0828 8.00737 24.9475 8.25056C24.8116 8.48089 24.6132 8.67051 24.374 8.79872C24.1185 8.92922 23.8342 8.9974 23.5455 8.9974C23.2569 8.9974 22.9724 8.92922 22.7171 8.79872ZM24.0817 8.38761C24.239 8.29888 24.3676 8.16897 24.4526 8.01271C24.5414 7.84095 24.5876 7.65139 24.5876 7.45917C24.5876 7.26696 24.5414 7.07741 24.4526 6.90564C24.3683 6.74959 24.2395 6.62044 24.0817 6.53368C23.9174 6.44757 23.7336 6.4025 23.547 6.4025C23.3603 6.4025 23.1766 6.44757 23.0123 6.53368C22.8537 6.62058 22.724 6.74961 22.6383 6.90564C22.5476 7.07685 22.5004 7.26662 22.5004 7.45917C22.5004 7.65173 22.5476 7.8415 22.6383 8.01271C22.7248 8.16894 22.8543 8.29873 23.0123 8.38761C23.1761 8.47519 23.36 8.5211 23.547 8.5211C23.734 8.5211 23.9179 8.47519 24.0817 8.38761Z" fill="#E40038"/>
<path d="M28.3055 5.95435V8.96332H27.8016V8.00993H26.837L26.1588 8.96332H25.554L26.3079 7.93554C26.0959 7.88184 25.9073 7.76347 25.7697 7.59783C25.6408 7.42824 25.575 7.22117 25.5833 7.01054C25.5833 6.66597 25.7032 6.40365 25.945 6.22745C26.187 6.05126 26.5205 5.95729 26.9449 5.95729L28.3055 5.95435ZM26.3553 7.47353C26.5301 7.58163 26.7361 7.63241 26.9429 7.61838H27.8025V6.43104H26.966C26.4286 6.43104 26.1597 6.63008 26.1597 7.02814C26.1533 7.11216 26.1676 7.19645 26.2016 7.27396C26.2357 7.35145 26.2885 7.41988 26.3553 7.47353Z" fill="#E40038"/>
<path d="M33.7715 5.95435V8.96332H29.3579V5.95435H29.9182V8.48662H31.287V5.95435H31.8493V8.48662H33.2101V5.95435H33.7715ZM34.2331 8.48662V9.60544H33.707V8.96332H33.1868V8.48662H34.2331Z" fill="#E40038"/>
<path d="M34.8176 5.95435H35.377V8.146L37.277 5.95435H37.7809V8.96332H37.2195V6.77169L35.3318 8.96332H34.8176V5.95435Z" fill="#E40038"/>
<path d="M41.7891 7.53117H39.221C39.2523 8.09009 39.6644 8.52666 40.2701 8.52666C40.8951 8.52666 41.1329 8.20462 41.1894 8.10772H41.7518C41.7074 8.36319 41.3072 9.03664 40.2701 9.03664C40.0558 9.04228 39.8424 9.00549 39.643 8.92857C39.4437 8.85164 39.2625 8.73613 39.1107 8.5891C38.9587 8.44207 38.839 8.26658 38.759 8.07327C38.6791 7.87996 38.6405 7.67289 38.6454 7.4646C38.6454 6.5582 39.3076 5.89258 40.2148 5.89258C41.1219 5.89258 41.7891 6.5484 41.7891 7.53117ZM39.2583 7.07013H41.1581C41.0211 6.62085 40.6764 6.36243 40.2148 6.36243C39.9952 6.35258 39.7789 6.41807 39.6041 6.54746C39.4292 6.67686 39.3069 6.86189 39.2583 7.07013Z" fill="#E40038"/>
<path d="M2.71223 14.0083C2.71844 14.1268 2.69402 14.2449 2.64122 14.352C2.58841 14.459 2.50888 14.5515 2.40988 14.621C2.20828 14.7646 1.90324 14.8364 1.4947 14.8364H0V11.8274H1.43826C1.80379 11.8274 2.09003 11.8946 2.29699 12.029C2.39555 12.0895 2.47609 12.174 2.53057 12.2741C2.58502 12.3743 2.61153 12.4865 2.60742 12.5997C2.61085 12.7474 2.56449 12.8921 2.47538 13.0118C2.38172 13.1312 2.25525 13.2225 2.11053 13.2751C2.51166 13.3743 2.71223 13.6187 2.71223 14.0083ZM0.5493 13.1224H1.39089C1.56188 13.1332 1.73225 13.0936 1.87972 13.0089C1.93397 12.9721 1.97769 12.9225 2.00678 12.8648C2.03589 12.8071 2.04939 12.7431 2.04602 12.679C2.04602 12.3912 1.82764 12.2473 1.39089 12.2473H0.5493V13.1224ZM1.97546 14.3088C2.03288 14.2733 2.07944 14.2235 2.11029 14.1647C2.14113 14.1058 2.15515 14.0399 2.15084 13.974C2.15586 13.9079 2.14383 13.8416 2.11586 13.7811C2.08787 13.7206 2.04482 13.6678 1.99059 13.6275C1.8383 13.541 1.66258 13.5014 1.48664 13.5139H0.5493V14.4164H1.44935C1.63155 14.4278 1.81347 14.3905 1.97546 14.3088Z" fill="#E40038"/>
<path d="M4.0458 14.6717C3.80521 14.5442 3.60567 14.3545 3.46928 14.1236C3.33308 13.8806 3.26172 13.6083 3.26172 13.3317C3.26172 13.055 3.33308 12.7828 3.46928 12.5398C3.60552 12.3095 3.80516 12.1207 4.0458 11.9946C4.30066 11.8619 4.58615 11.7945 4.87529 11.7988C5.16382 11.7943 5.4487 11.8617 5.70277 11.9946C5.94204 12.1211 6.14028 12.3099 6.27526 12.5398C6.41145 12.7828 6.48281 13.055 6.48281 13.3317C6.48281 13.6083 6.41145 13.8806 6.27526 14.1236C6.14008 14.354 5.94197 14.5437 5.70277 14.6717C5.44903 14.8054 5.16391 14.8729 4.87529 14.8675C4.58605 14.8726 4.30035 14.8052 4.0458 14.6717ZM5.41047 14.2606C5.56785 14.1719 5.69638 14.042 5.78139 13.8857C5.8702 13.7139 5.91647 13.5244 5.91647 13.3322C5.91647 13.14 5.8702 12.9504 5.78139 12.7786C5.69715 12.6226 5.56836 12.4934 5.41047 12.4067C5.24621 12.3206 5.06247 12.2755 4.87579 12.2755C4.68912 12.2755 4.50539 12.3206 4.34111 12.4067C4.18248 12.4938 4.05251 12.6228 3.96618 12.7786C3.8761 12.95 3.82913 13.1397 3.82913 13.3322C3.82913 13.5246 3.8761 13.7143 3.96618 13.8857C4.05328 14.0418 4.18301 14.1715 4.34111 14.2606C4.50489 14.3482 4.68883 14.3941 4.87579 14.3941C5.06277 14.3941 5.24668 14.3482 5.41047 14.2606Z" fill="#E40038"/>
<path d="M9.36633 13.9565C9.36633 13.6834 9.16475 13.565 8.71623 13.565H8.20422V13.0756H8.7233C9.08513 13.0756 9.31695 12.9483 9.31695 12.6635C9.31695 12.4021 9.01457 12.2563 8.52878 12.2563C8.04296 12.2563 7.78596 12.4452 7.66097 12.6811H7.10461C7.1923 12.2387 7.67912 11.759 8.54187 11.759C9.36633 11.759 9.87934 12.0928 9.87934 12.64C9.88383 12.7871 9.83771 12.9314 9.74827 13.0502C9.65883 13.169 9.53116 13.2554 9.38547 13.2958C9.70398 13.3741 9.95997 13.5895 9.95997 13.9448C9.95997 14.5399 9.40362 14.9041 8.56001 14.9041C7.62367 14.9041 7.10462 14.4058 7.03003 13.9145H7.61058C7.70432 14.1269 7.99157 14.4039 8.56001 14.4039C9.05388 14.4117 9.36633 14.2913 9.36633 13.9565Z" fill="#E40038"/>
<path d="M14.4381 11.8274V14.8364H13.9341V12.6398L12.776 14.4996H12.5311L11.3851 12.6398V14.8422H10.8701V11.8274H11.4487L12.6652 13.8604L13.9089 11.8274H14.4381Z" fill="#E40038"/>
<path d="M15.9872 14.6717C15.7467 14.5444 15.5474 14.3546 15.4116 14.1236C15.2754 13.8806 15.2041 13.6083 15.2041 13.3317C15.2041 13.055 15.2754 12.7828 15.4116 12.5398C15.5472 12.3094 15.7466 12.1205 15.9872 11.9946C16.2424 11.8619 16.5282 11.7945 16.8177 11.7988C17.1059 11.7943 17.3904 11.8617 17.6441 11.9946C17.8837 12.1211 18.0822 12.3099 18.2176 12.5398C18.3539 12.7828 18.4252 13.055 18.4252 13.3317C18.4252 13.6083 18.3539 13.8806 18.2176 14.1236C18.0821 14.3541 17.8836 14.5438 17.6441 14.6717C17.3908 14.8054 17.106 14.8729 16.8177 14.8675C16.5281 14.8726 16.2421 14.8052 15.9872 14.6717ZM17.3518 14.2606C17.5095 14.1719 17.6384 14.042 17.7238 13.8857C17.8119 13.7137 17.8578 13.5243 17.8578 13.3322C17.8578 13.1401 17.8119 12.9506 17.7238 12.7786C17.6392 12.6225 17.51 12.4934 17.3518 12.4067C17.1876 12.3206 17.0038 12.2755 16.8172 12.2755C16.6305 12.2755 16.4467 12.3206 16.2825 12.4067C16.1242 12.4939 15.9945 12.6228 15.9085 12.7786C15.8178 12.9499 15.7705 13.1396 15.7705 13.3322C15.7705 13.5247 15.8178 13.7145 15.9085 13.8857C15.9953 14.0417 16.1247 14.1714 16.2825 14.2606C16.4463 14.3482 16.6302 14.3941 16.8172 14.3941C17.0041 14.3941 17.1881 14.3482 17.3518 14.2606Z" fill="#E40038"/>
<path d="M21.0145 13.4838L19.4906 14.8366H18.7024L20.4399 13.3017L18.7779 11.8442H19.5772L21.0145 13.1167V11.8442H21.5688V13.1167L23.0021 11.8442H23.7952L22.1454 13.2939L23.895 14.8415H23.0887L21.5688 13.4838V14.8366H21.0145V13.4838Z" fill="#E40038"/>
<path d="M24.4453 11.8274H25.0067V13.0999H26.7715V11.8274H27.3329V14.8364H26.7715V13.5766H25.0067V14.8364H24.4453V11.8274Z" fill="#E40038"/>
<path d="M28.8822 14.672C28.6418 14.5444 28.4426 14.3547 28.3066 14.1239C28.1704 13.8809 28.0991 13.6086 28.0991 13.332C28.0991 13.0553 28.1704 12.7831 28.3066 12.5401C28.4424 12.3099 28.6417 12.121 28.8822 11.9949C29.1384 11.8662 29.4227 11.7991 29.7112 11.7991C29.9995 11.7991 30.2838 11.8662 30.54 11.9949C30.7792 12.1217 30.9772 12.3105 31.1126 12.5401C31.2489 12.7831 31.3201 13.0553 31.3201 13.332C31.3201 13.6086 31.2489 13.8809 31.1126 14.1239C30.9772 14.3541 30.779 14.5438 30.54 14.672C30.2845 14.8025 29.9998 14.8707 29.7112 14.8707C29.4223 14.8707 29.1379 14.8025 28.8822 14.672ZM30.2479 14.2609C30.405 14.1719 30.5334 14.0421 30.6188 13.886C30.7069 13.714 30.7527 13.5246 30.7527 13.3325C30.7527 13.1404 30.7069 12.9509 30.6188 12.7789C30.5341 12.6231 30.4056 12.494 30.2479 12.407C30.0834 12.3209 29.8995 12.2758 29.7126 12.2758C29.5258 12.2758 29.3419 12.3209 29.1774 12.407C29.0194 12.4944 28.8897 12.6233 28.8036 12.7789C28.7135 12.9503 28.6664 13.14 28.6664 13.3325C28.6664 13.5249 28.7135 13.7146 28.8036 13.886C28.8904 14.0418 29.0199 14.1715 29.1774 14.2609C29.3414 14.3486 29.5254 14.3947 29.7126 14.3947C29.8998 14.3947 30.0839 14.3486 30.2479 14.2609Z" fill="#E40038"/>
<path d="M33.4618 12.2759C32.8935 12.2759 32.4872 12.7496 32.4872 13.3379C32.4872 13.9262 32.8905 14.3999 33.469 14.3999C34.0939 14.3999 34.3247 14.0084 34.376 13.9027H34.9385C34.9012 14.1082 34.5766 14.9099 33.471 14.9099C32.589 14.9099 31.9016 14.2247 31.9016 13.3379C31.9016 12.4511 32.585 11.7659 33.4618 11.7659C34.5705 11.7659 34.8931 12.5489 34.9365 12.7731H34.3691C34.283 12.6143 34.1516 12.483 33.9908 12.3949C33.83 12.3067 33.6463 12.2654 33.4618 12.2759Z" fill="#E40038"/>
<path d="M38.0692 12.3041H36.9352V14.8364H36.3738V12.3041H35.24V11.8274H38.0692V12.3041Z" fill="#E40038"/>
<path d="M38.6023 11.8274H39.1626V14.019L41.0624 11.8274H41.5714V14.8364H41.01V12.6447L39.1163 14.8364H38.6023V11.8274Z" fill="#E40038"/>
</g>
</g>
<defs>
<clipPath id="clip0_2051_3916">
<rect width="128" height="18" fill="white"/>
</clipPath>
</defs>
</svg>
