<svg width="101" height="12" viewBox="0 0 101 12" fill="none" xmlns="http://www.w3.org/2000/svg">
<mask id="mask0_2051_3998" style="mask-type:luminance" maskUnits="userSpaceOnUse" x="0" y="0" width="101" height="12">
<path d="M101 0H0V11.9654H101V0Z" fill="white"/>
</mask>
<g mask="url(#mask0_2051_3998)">
<path d="M28.8853 11.9654H31.6753V2.29993H35.1875V0H28.8853V11.9654Z" fill="#990032"/>
<path d="M62.3987 2.29993H65.1887V11.9654H67.9459V2.29993H70.736V0H62.3987V2.29993Z" fill="#990032"/>
<path d="M0 0V11.9654H2.72441V8.90857H6.2366L8.27169 7.1909V1.71767L6.33507 0H0ZM5.51446 6.60864H2.72441V2.29993H5.51446V6.60864Z" fill="#990032"/>
<path d="M11.8169 0L9.84741 1.71767V10.2186L11.784 11.9363H16.6748L18.6114 10.2186V1.71767L16.7076 0H11.8169ZM15.8871 9.63639H12.6375V2.29993H15.8871V9.63639Z" fill="#990032"/>
<path d="M23.1739 2.29993H27.1127V0H22.3534L20.4167 1.71767V10.2186L22.3534 11.9654H27.1456V9.63639H23.1739V2.29993Z" fill="#990032"/>
<path d="M37.9776 0L36.041 1.71767V10.2186L37.9776 11.9363H42.8685L44.8051 10.2186V1.71767L42.8685 0H37.9776ZM42.0479 9.63639H38.7982V2.29993H42.0479V9.63639Z" fill="#990032"/>
<path d="M72.1475 0V11.9654H74.8719V8.90857H78.3841L80.4192 7.1909V1.71767L78.4826 0H72.1475ZM77.662 6.60864H74.8719V2.29993H77.662V6.60864Z" fill="#990032"/>
<path d="M49.3674 2.29993H53.2735V0H48.5469L46.5774 1.71767V10.2186L48.5469 11.9654H53.3064V9.63639H49.3674V2.29993Z" fill="#990032"/>
<path d="M57.4095 2.29993H61.3485V0H56.589L54.6523 1.71767V10.2186L56.589 11.9654H61.3812V9.63639H57.4095V2.29993Z" fill="#990032"/>
<path d="M98.9977 5.8226L100.967 0H98.177L96.7 4.5125H96.1748L94.6977 0H91.9076L93.8771 5.85171L91.8748 11.9654H94.6321L96.2077 7.24913H96.6672L98.2427 11.9654H101L98.9977 5.8226Z" fill="#990032"/>
<path d="M88.4611 11.9654H91.2514L88.494 0H83.7673L80.9773 11.9654H83.7018L84.3253 9.11236H87.8703L88.4611 11.9654ZM84.8177 6.87065L85.8353 2.32904H86.3605L87.3779 6.87065H84.8177Z" fill="#990032"/>
</g>
</svg>
