<svg width="109" height="17" viewBox="0 0 109 17" fill="none" xmlns="http://www.w3.org/2000/svg">
<g clip-path="url(#clip0_2051_3972)">
<path d="M48.6878 5.06411L50.96 3.36499H43.353V13.5431H50.96V11.844H45.5265V9.24528H50.1697V7.54616H45.5265V5.06411H48.6878Z" fill="#21A038"/>
<path d="M37.6067 7.3296H34.9723V5.06411H39.1874L41.4596 3.36499H32.7988V13.5431H37.3268C39.8624 13.5431 41.3278 12.377 41.3278 10.3447C41.3278 8.39572 40.0106 7.3296 37.6067 7.3296ZM37.2444 11.844H34.9723V9.02873H37.2444C38.6276 9.02873 39.2697 9.49515 39.2697 10.4447C39.2697 11.3942 38.5782 11.844 37.2444 11.844Z" fill="#21A038"/>
<path d="M57.118 3.36499H52.9854V13.5431H55.1587V10.6612H57.1345C59.769 10.6612 61.4155 9.26194 61.4155 7.01311C61.4155 4.76426 59.769 3.36499 57.118 3.36499ZM57.0687 8.96209H55.1423V5.06411H57.0687C58.4683 5.06411 59.2257 5.76374 59.2257 7.01311C59.2257 8.26246 58.4683 8.96209 57.0687 8.96209Z" fill="#21A038"/>
<path d="M29.0775 11.3441C28.5013 11.6606 27.8592 11.8272 27.2005 11.8272C25.2411 11.8272 23.8251 10.4113 23.8251 8.46232C23.8251 6.51333 25.2411 5.0974 27.2005 5.0974C27.9085 5.08074 28.6 5.31395 29.1764 5.7304L30.7406 4.56433L30.6417 4.46438C29.7362 3.64814 28.5177 3.23169 27.1347 3.23169C25.6363 3.23169 24.2697 3.74809 23.2818 4.68094C22.2938 5.64711 21.734 6.99641 21.767 8.39568C21.7505 9.81162 22.2938 11.1776 23.2818 12.177C24.3191 13.1599 25.7021 13.7096 27.1182 13.6763C28.6824 13.6763 30.049 13.1266 30.9711 12.1271L29.5715 11.0776L29.0775 11.3441Z" fill="#21A038"/>
<path d="M87.5459 3.38165V13.5597H89.7193V9.3952H94.346V13.5597H96.5194V3.38165H94.346V7.56282H89.7193V3.38165H87.5459ZM83.8082 13.5597H86.0969L81.8489 3.38165H79.6425L75.3122 13.5597H77.5021L78.3747 11.5108H82.985L83.8082 13.5597ZM79.0334 9.81166L80.7128 5.73043L82.2934 9.81166H79.0334ZM101.393 9.44518H102.743L106.069 13.5431H108.868L104.423 8.27912L108.308 3.36499H105.823L102.595 7.7294H101.393V3.36499H99.2198V13.5431H101.393V9.44518ZM68.1334 7.34626V5.08077H73.8139V3.38165H65.96V13.5597H70.4879C73.0236 13.5597 74.4889 12.3937 74.4889 10.3614C74.4889 8.41238 73.1717 7.34626 70.7678 7.34626H68.1334ZM68.1334 11.8606V9.04538H70.4056C71.7886 9.04538 72.4308 9.51181 72.4308 10.4613C72.4308 11.4109 71.7557 11.8772 70.4056 11.8772H68.1334V11.8606Z" fill="#21A038"/>
<path d="M14.967 3.29858C15.3621 3.81499 15.6914 4.38137 15.9714 4.98105L8.36443 10.6614L5.17017 8.62917V6.19709L8.34796 8.21271L14.967 3.29858Z" fill="#21A038"/>
<path d="M1.92644 8.46193C1.92644 8.34532 1.92644 8.24537 1.9429 8.12876L0.0164652 8.02881C0.0164652 8.16208 0 8.312 0 8.44527C0 10.7774 0.93852 12.893 2.45332 14.4255L3.81994 13.0429C2.6509 11.8768 1.92644 10.261 1.92644 8.46193Z" fill="url(#paint0_linear_2051_3972)"/>
<path d="M8.34793 1.96559C8.46319 1.96559 8.56198 1.96559 8.67724 1.98225L8.77603 0.0332594C8.6443 0.0332594 8.49612 0.0166016 8.3644 0.0166016C6.05926 0.0166016 3.96817 0.966111 2.45337 2.49865L3.81999 3.88127C4.97255 2.69855 6.58615 1.96559 8.34793 1.96559Z" fill="url(#paint1_linear_2051_3972)"/>
<path d="M8.34777 14.9589C8.23252 14.9589 8.13372 14.9589 8.01847 14.9422L7.91968 16.8913C8.0514 16.8913 8.19959 16.9078 8.33131 16.9078C10.6364 16.9078 12.7275 15.9584 14.2423 14.4258L12.8757 13.0432C11.7231 14.2426 10.126 14.9589 8.34777 14.9589Z" fill="url(#paint2_linear_2051_3972)"/>
<path d="M11.9703 3.0984L13.6003 1.88236C12.1678 0.716296 10.3402 0 8.3479 0V1.94899C9.69805 1.96565 10.9495 2.3821 11.9703 3.0984Z" fill="url(#paint3_linear_2051_3972)"/>
<path d="M16.7123 8.46217C16.7123 7.94577 16.6629 7.44604 16.5806 6.94629L14.7859 8.29559C14.7859 8.34557 14.7859 8.4122 14.7859 8.46217C14.7859 10.3778 13.9626 12.0937 12.6619 13.2763L13.9626 14.7256C15.642 13.193 16.7123 10.9443 16.7123 8.46217Z" fill="#21A038"/>
<path d="M8.34792 14.959C6.45442 14.959 4.7585 14.1261 3.58946 12.8101L2.15698 14.1261C3.68825 15.8418 5.89459 16.9079 8.34792 16.9079V14.959Z" fill="url(#paint4_linear_2051_3972)"/>
<path d="M4.05045 3.64799L2.7497 2.19873C1.05378 3.74793 0 5.98012 0 8.46217H1.92644C1.92644 6.56314 2.7497 4.83071 4.05045 3.64799Z" fill="url(#paint5_linear_2051_3972)"/>
</g>
<defs>
<linearGradient id="paint0_linear_2051_3972" x1="2.24775" y1="14.1884" x2="0.266626" y2="8.44095" gradientUnits="userSpaceOnUse">
<stop offset="0.1444" stop-color="#F2E913"/>
<stop offset="0.3037" stop-color="#E7E518"/>
<stop offset="0.5823" stop-color="#CADB26"/>
<stop offset="0.891" stop-color="#A3CD39"/>
</linearGradient>
<linearGradient id="paint1_linear_2051_3972" x1="3.0025" y1="2.27872" x2="8.00126" y2="0.366858" gradientUnits="userSpaceOnUse">
<stop offset="0.0592" stop-color="#0FA8E0"/>
<stop offset="0.5385" stop-color="#0099F9"/>
<stop offset="0.9234" stop-color="#0291EB"/>
</linearGradient>
<linearGradient id="paint2_linear_2051_3972" x1="7.80656" y1="15.2503" x2="13.7621" y2="13.8995" gradientUnits="userSpaceOnUse">
<stop offset="0.1226" stop-color="#A3CD39"/>
<stop offset="0.2846" stop-color="#86C339"/>
<stop offset="0.8693" stop-color="#21A038"/>
</linearGradient>
<linearGradient id="paint3_linear_2051_3972" x1="7.95209" y1="1.24137" x2="12.9052" y2="2.77519" gradientUnits="userSpaceOnUse">
<stop offset="0.0566" stop-color="#0291EB"/>
<stop offset="0.79" stop-color="#0C8ACB"/>
</linearGradient>
<linearGradient id="paint4_linear_2051_3972" x1="2.64681" y1="14.4348" x2="7.96854" y2="16.4305" gradientUnits="userSpaceOnUse">
<stop offset="0.1324" stop-color="#F2E913"/>
<stop offset="0.2977" stop-color="#EBE716"/>
<stop offset="0.5306" stop-color="#D9E01F"/>
<stop offset="0.8023" stop-color="#BBD62D"/>
<stop offset="0.9829" stop-color="#A3CD39"/>
</linearGradient>
<linearGradient id="paint5_linear_2051_3972" x1="1.47608" y1="8.69758" x2="3.61749" y2="3.10673" gradientUnits="userSpaceOnUse">
<stop offset="0.0698" stop-color="#A3CD39"/>
<stop offset="0.2599" stop-color="#81C55F"/>
<stop offset="0.9216" stop-color="#0FA8E0"/>
</linearGradient>
<clipPath id="clip0_2051_3972">
<rect width="109" height="17" fill="white"/>
</clipPath>
</defs>
</svg>
