<svg width="103" height="22" viewBox="0 0 103 22" fill="none" xmlns="http://www.w3.org/2000/svg">
<g clip-path="url(#clip0_2051_3865)">
<path d="M0 16.3132V0H21.8033L13.8927 8.94823H6.62618L0 16.3132Z" fill="#00AEEF"/>
<path d="M21.8033 5.68677V22H0L7.90873 13.0518H15.1752L21.8033 5.68677Z" fill="black"/>
<path d="M102.171 10.5644C101.089 9.40023 99.3676 9.3071 98.5869 9.3071H97.4409V7.57644H101.696V5.45386H97.4409H94.4758V7.57644V16.4645H98.012C99.1599 16.4645 101.008 16.3714 102.06 15.3644C102.506 14.9395 103 14.1518 103 12.848C103 12.0447 102.777 11.226 102.171 10.5644ZM99.5099 14.0587C99.0792 14.373 98.4908 14.3904 98.2043 14.3904H97.439V11.3851H98.2043C98.5542 11.3851 99.1907 11.4316 99.6041 11.7944C99.9714 12.1262 100.035 12.5822 100.035 12.8965C100.037 13.302 99.956 13.7269 99.5099 14.0587Z" fill="black"/>
<path d="M64.4599 12.7684H64.4273L62.0698 5.4519H57.4011V6.48215V16.4645H60.3008H60.3604V8.28461L62.9774 16.4645H65.7021L68.4633 8.22446V16.4645H68.521H71.4226V6.48215V5.4519H66.9289L64.4599 12.7684Z" fill="black"/>
<path d="M36.7439 5.4519V6.48215V16.4645H39.6436H39.7032V7.57643H44.1488V16.4645H44.2065H44.4911H46.5659H47.1081V6.48215V5.4519H36.7439Z" fill="black"/>
<path d="M35.619 12.3649H35.5959H35.4536H33.202H33.0578H33.0366H32.8924C32.7866 12.8771 32.5847 13.3059 32.279 13.6357C31.9483 13.9908 31.4964 14.1693 30.9176 14.1925C30.5196 14.1731 30.1715 14.0897 29.8889 13.9345C29.5601 13.7541 29.2889 13.5115 29.0851 13.2147C28.9813 13.0633 28.5525 12.3746 28.5525 10.9446C28.5525 9.52829 28.9813 8.82593 29.0851 8.67072C29.2889 8.36998 29.5581 8.12552 29.887 7.94508C30.1696 7.78986 30.5157 7.70643 30.9118 7.68703C31.1253 7.69867 31.331 7.73166 31.5272 7.79956C31.7637 7.88493 31.9752 8.00135 32.1598 8.1488C32.3463 8.29626 32.502 8.47088 32.6251 8.66684C32.7463 8.85892 32.8251 9.07234 32.8578 9.30322L32.8597 9.30711H33.002H33.0231H33.1674H35.3998H35.544H35.5652H35.7094L35.7036 9.2586C35.6344 8.65132 35.4633 8.10418 35.1921 7.63077C34.9229 7.15736 34.5768 6.75573 34.1615 6.4356C33.7481 6.11741 33.2731 5.86906 32.7463 5.70414C32.2213 5.53923 31.6656 5.45386 31.0945 5.45386C31.0734 5.45386 31.0522 5.4558 31.0311 5.4558C31.0041 5.4558 30.9791 5.45386 30.9522 5.45386C30.9484 5.45386 30.9445 5.45386 30.9426 5.45386C30.9388 5.45386 30.9349 5.45386 30.9311 5.45386C30.908 5.45386 30.8888 5.4558 30.8657 5.4558C30.8388 5.4558 30.8138 5.45386 30.7869 5.45386C29.9696 5.45386 29.2293 5.59743 28.5852 5.8807C27.941 6.16397 27.3892 6.56171 26.9411 7.06229C26.497 7.55898 26.1508 8.15268 25.9143 8.82205C25.6778 9.49142 25.5586 10.2171 25.5586 10.9815C25.5586 11.7401 25.6778 12.4541 25.9143 13.108C26.1508 13.7657 26.497 14.3478 26.9431 14.8347C27.3892 15.3256 27.941 15.7156 28.5852 15.9931C29.2293 16.2724 29.9696 16.4141 30.7849 16.4141C30.8119 16.4141 30.8349 16.4102 30.8618 16.4102C30.8849 16.4102 30.9061 16.4141 30.9291 16.4141C30.933 16.4141 30.9368 16.4141 30.9407 16.4141C30.9426 16.4141 30.9465 16.4141 30.9503 16.4141C30.9753 16.4141 31.0022 16.4102 31.0272 16.4102C31.0503 16.4102 31.0714 16.4141 31.0945 16.4141C31.7444 16.4141 32.3501 16.3151 32.8962 16.1192C33.4442 15.9232 33.9288 15.6341 34.3365 15.2577C34.7441 14.8852 35.0787 14.4292 35.3248 13.9034C35.5421 13.4475 35.6825 12.9295 35.7555 12.3649H35.619Z" fill="black"/>
<path d="M93.1145 12.3649H93.0914H92.9472H90.6955H90.5513H90.5302H90.3859C90.2802 12.8771 90.0783 13.3059 89.7726 13.6357C89.4418 13.9908 88.9899 14.1693 88.4131 14.1925C88.0151 14.1731 87.667 14.0897 87.3844 13.9345C87.0556 13.7541 86.7844 13.5115 86.5806 13.2147C86.4768 13.0633 86.0499 12.3746 86.0499 10.9446C86.0499 9.52829 86.4806 8.82593 86.5825 8.67072C86.7844 8.36998 87.0556 8.12552 87.3844 7.94508C87.667 7.78986 88.0151 7.70643 88.4092 7.68703C88.6227 7.69867 88.8284 7.73166 89.0246 7.79956C89.2611 7.88493 89.4726 8.00135 89.6572 8.1488C89.8418 8.29626 89.9975 8.47088 90.1206 8.66684C90.2417 8.85892 90.3206 9.07234 90.3552 9.30322V9.30711H90.4994H90.5225H90.6686H92.901H93.0453H93.0683H93.2106L93.2049 9.2586C93.1356 8.65132 92.9645 8.10418 92.6953 7.63077C92.4261 7.15736 92.0781 6.75573 91.6646 6.4356C91.2532 6.11741 90.7763 5.86906 90.2494 5.70414C89.7245 5.53923 89.1688 5.45386 88.5996 5.45386C88.5765 5.45386 88.5573 5.4558 88.5342 5.4558C88.5092 5.4558 88.4823 5.45386 88.4554 5.45386C88.4515 5.45386 88.4496 5.45386 88.4439 5.45386C88.44 5.45386 88.4362 5.45386 88.4323 5.45386C88.4092 5.45386 88.39 5.4558 88.3669 5.4558C88.34 5.4558 88.315 5.45386 88.2881 5.45386C87.4709 5.45386 86.7306 5.59743 86.0864 5.8807C85.4442 6.16397 84.8904 6.56171 84.4443 7.06229C84.0001 7.55898 83.654 8.15268 83.4175 8.82205C83.1829 9.49142 83.0618 10.2171 83.0618 10.9815C83.0618 11.7401 83.1829 12.4541 83.4175 13.108C83.654 13.7657 84.0001 14.3478 84.4443 14.8347C84.8904 15.3256 85.4423 15.7156 86.0864 15.9931C86.7287 16.2724 87.4709 16.4141 88.2862 16.4141C88.3131 16.4141 88.3381 16.4102 88.3631 16.4102C88.3862 16.4102 88.4054 16.4141 88.4304 16.4141C88.4342 16.4141 88.4381 16.4141 88.4419 16.4141C88.4458 16.4141 88.4496 16.4141 88.4535 16.4141C88.4804 16.4141 88.5035 16.4102 88.5304 16.4102C88.5535 16.4102 88.5746 16.4141 88.5977 16.4141C89.2476 16.4141 89.8533 16.3151 90.3975 16.1192C90.9436 15.9232 91.4281 15.6341 91.8377 15.2577C92.2454 14.8852 92.578 14.4292 92.828 13.9034C93.0453 13.4475 93.1856 12.9295 93.2587 12.3649H93.1145Z" fill="black"/>
<path d="M55.8514 10.9253C55.6669 10.4461 55.415 10.0348 55.0958 9.68555C54.7766 9.34019 54.3997 9.07438 53.9651 8.88618C53.5306 8.69798 53.0691 8.60485 52.5787 8.60485C52.5461 8.60485 52.5153 8.60679 52.4826 8.60873C52.4557 8.60873 52.4307 8.60485 52.4057 8.60485C51.9653 8.60485 51.5769 8.67082 51.2385 8.80469C50.8982 8.93857 50.604 9.1093 50.3559 9.31691C50.229 9.42362 50.1156 9.54003 50.0136 9.66032C50.0733 9.25676 50.279 8.4671 50.977 8.11592C51.3116 7.94712 51.7115 7.82295 52.1903 7.77444C52.7979 7.71624 53.3287 7.64833 53.7767 7.5746C54.2266 7.50087 54.6054 7.38252 54.915 7.21954C55.2246 7.05657 55.4611 6.83733 55.6265 6.55988C55.7918 6.28243 55.8938 5.90797 55.9322 5.43262H55.7611H53.8882H53.7152C53.7055 5.56067 53.6036 5.64022 53.4229 5.70618C53.146 5.80901 52.0711 5.8323 51.2962 6.02632C50.5847 6.20288 50.0252 6.49197 49.6118 6.86449C49.1983 7.23701 48.8792 7.67355 48.6599 8.17801C48.4407 8.68246 48.3004 9.24318 48.2408 9.86211C48.1812 10.481 48.1504 11.1252 48.1504 11.7965C48.1504 12.3611 48.2042 12.9179 48.3138 13.4728C48.4234 14.0258 48.6215 14.5264 48.9042 14.9726C49.1887 15.4169 49.5752 15.7778 50.0656 16.0552C50.554 16.3327 51.1731 16.4704 51.9211 16.4704C51.9538 16.4704 51.9846 16.4685 52.0173 16.4685C52.0423 16.4685 52.0653 16.4704 52.0923 16.4704C52.7095 16.4704 53.271 16.3793 53.769 16.1969C54.267 16.0145 54.692 15.7506 55.0419 15.4111C55.3919 15.0696 55.6592 14.6583 55.8438 14.1732C56.0284 13.6882 56.1207 13.1449 56.1207 12.5415C56.1283 11.942 56.036 11.4065 55.8514 10.9253ZM50.9539 14.2916C50.6405 13.8919 50.4828 13.306 50.4828 12.5338C50.4828 11.7829 50.6366 11.1931 50.9462 10.7701C51.2385 10.3685 51.6385 10.1628 52.1365 10.1396C52.6595 10.1628 53.0729 10.3646 53.3652 10.7604C53.6748 11.1814 53.8286 11.7674 53.8286 12.5182C53.8286 13.2904 53.6709 13.8764 53.3575 14.2819C53.0614 14.6641 52.6595 14.8601 52.1615 14.8814C51.6558 14.862 51.252 14.6699 50.9539 14.2916Z" fill="black"/>
<path d="M83.0598 5.4519H72.6956V7.52792H76.3971V16.4645H79.3602V7.52792H83.0598V5.4519Z" fill="black"/>
</g>
<defs>
<clipPath id="clip0_2051_3865">
<rect width="103" height="22" fill="white"/>
</clipPath>
</defs>
</svg>
