<svg width="61" height="22" viewBox="0 0 61 22" fill="none" xmlns="http://www.w3.org/2000/svg">
<g clip-path="url(#clip0_2051_3988)">
<mask id="mask0_2051_3988" style="mask-type:luminance" maskUnits="userSpaceOnUse" x="0" y="0" width="61" height="22">
<path d="M61 0H0V22H61V0Z" fill="white"/>
</mask>
<g mask="url(#mask0_2051_3988)">
<path fill-rule="evenodd" clip-rule="evenodd" d="M4.15258 0L3.11379 2.87809H17.5092L18.5479 0H4.15258ZM2.59407 4.31647L1.55527 7.1939H15.9506L16.9894 4.31647H2.59407ZM1.03879 8.63295L0 11.5104H14.3954L15.4335 8.63295H1.03879Z" fill="#00AAFF"/>
<path fill-rule="evenodd" clip-rule="evenodd" d="M30.6037 12.6072V12.6679C31.2614 12.9121 31.8899 13.3392 32.2192 13.6135C33.2364 14.4676 33.6855 15.5961 33.6855 17.0602C33.6855 19.4705 32.4286 21.2088 30.364 21.7581C29.7356 21.9409 29.0778 22.0023 27.8504 22.0023H21.5977V4.37183H27.133C28.2701 4.37183 29.0477 4.43255 29.7356 4.61538C31.7407 5.16459 33.0571 6.56796 33.0571 8.79411C33.0571 9.98394 32.6381 10.9909 31.9502 11.6616C31.6511 11.9665 31.2321 12.3329 30.6037 12.6072ZM25.0683 14.4676V19.1041H27.4622C28.1796 19.1041 28.8382 19.0434 29.3175 18.5856C29.7959 18.1279 30.0054 17.5486 30.0054 16.7859C30.0054 16.2066 29.8554 15.6575 29.5563 15.2611C29.0477 14.6204 28.4192 14.4676 27.3424 14.4676H25.0683ZM25.0382 11.4173H26.9831C27.5814 11.4173 27.8805 11.4173 28.1796 11.3259C28.9882 11.0817 29.4968 10.3503 29.4968 9.34332C29.4968 8.15416 28.958 7.63499 28.1796 7.39141C27.8504 7.3 27.5218 7.26931 26.8633 7.26931H25.0382V11.4173ZM38.8915 22.0023V7.33004H33.895V4.37183H47.7784L46.7913 7.33004H42.3624V22.0023H38.8915ZM48.8551 22.0023V4.37183H60.1057L59.1187 7.33004H52.2964V11.2345H55.0791C57.323 11.2345 58.4902 11.7837 59.298 12.485C59.9264 13.0342 61.0034 14.2541 61.0034 16.6644C61.0034 19.0434 59.8962 20.3547 58.9687 21.026C57.892 21.7881 56.7549 22.0023 54.4507 22.0023H48.8551ZM52.2964 19.0434H54.8998C55.8868 19.0434 56.4851 18.7992 56.9041 18.25C57.1135 17.9757 57.4127 17.4872 57.4127 16.5723C57.4127 15.6575 57.1135 15.0168 56.5153 14.559C56.1566 14.2848 55.6774 14.1326 54.8696 14.1326H52.2964V19.0434Z" fill="#0A2896"/>
</g>
</g>
<defs>
<clipPath id="clip0_2051_3988">
<rect width="61" height="22" fill="white"/>
</clipPath>
</defs>
</svg>
