<svg width="27" height="15" viewBox="0 0 27 15" fill="none" xmlns="http://www.w3.org/2000/svg">
<path d="M1 6.36395C0.447715 6.36395 -4.82823e-08 6.81167 0 7.36395C4.82823e-08 7.91624 0.447715 8.36395 1 8.36395L1 7.36395L1 6.36395ZM26.7071 8.07106C27.0976 7.68053 27.0976 7.04737 26.7071 6.65684L20.3431 0.292883C19.9526 -0.0976412 19.3195 -0.0976412 18.9289 0.292883C18.5384 0.683408 18.5384 1.31657 18.9289 1.7071L24.5858 7.36395L18.9289 13.0208C18.5384 13.4113 18.5384 14.0445 18.9289 14.435C19.3195 14.8255 19.9526 14.8255 20.3431 14.435L26.7071 8.07106ZM1 7.36395L1 8.36395L26 8.36395L26 7.36395L26 6.36395L1 6.36395L1 7.36395Z" fill="#C8FF6A"/>
</svg>
