<svg width="27" height="15" viewBox="0 0 27 15" fill="none" xmlns="http://www.w3.org/2000/svg">
<path d="M26 6.36395C26.5523 6.36395 27 6.81167 27 7.36395C27 7.91624 26.5523 8.36395 26 8.36395L26 7.36395L26 6.36395ZM0.292892 8.07106C-0.0976315 7.68053 -0.0976314 7.04737 0.292893 6.65684L6.65686 0.292883C7.04738 -0.0976412 7.68054 -0.0976412 8.07107 0.292883C8.46159 0.683408 8.46159 1.31657 8.07107 1.7071L2.41421 7.36395L8.07107 13.0208C8.46159 13.4113 8.46159 14.0445 8.07107 14.435C7.68054 14.8255 7.04738 14.8255 6.65685 14.435L0.292892 8.07106ZM26 7.36395L26 8.36395L1 8.36395L1 7.36395L1 6.36395L26 6.36395L26 7.36395Z" fill="#AFAFAF"/>
</svg>
