<svg width="343" height="238" viewBox="0 0 343 238" fill="none" xmlns="http://www.w3.org/2000/svg">
<path d="M343 98.1096C343 114.815 329.456 128.356 312.748 128.356H116.551C107.848 128.356 100.795 132.409 100.795 141.11C100.795 149.811 107.848 153.863 116.551 153.863H214.322C231.03 153.863 244.574 167.405 244.574 184.11V207.753C244.574 224.458 231.03 238 214.322 238H30.2517C13.5442 238 0 224.458 0 207.753L0 30.2466C0 13.5419 13.5442 0 30.2517 0L312.748 0C329.456 0 343 13.5419 343 30.2466V98.1096Z" fill="#C8FF6A"/>
</svg>
