<svg width="603" height="306" viewBox="0 0 603 306" fill="none" xmlns="http://www.w3.org/2000/svg">
<path d="M603 166.11C603 182.815 589.456 196.356 572.748 196.356H261.551C252.848 196.356 245.795 203.409 245.795 212.11C245.795 220.811 252.848 227.863 261.551 227.863H359.322C376.03 227.863 389.574 241.405 389.574 258.11V275.753C389.574 292.458 376.03 306 359.322 306H30.2517C13.5442 306 0 292.458 0 275.753L0 30.2466C0 13.5419 13.5442 0 30.2517 0L572.748 0C589.456 0 603 13.5419 603 30.2466V166.11Z" fill="#C8FF6A"/>
</svg>
